<svg width="429" height="470" viewBox="0 0 429 470" fill="none" xmlns="http://www.w3.org/2000/svg">
<g filter="url(#filter0_d)">
<path d="M349.973 227.367L84.2237 74.7295C79.8832 72.2365 77.713 70.99 75.9325 71.1785C74.3795 71.343 72.9692 72.157 72.0518 73.4185C71 74.8646 71 77.3638 71 82.362V112.023C71 113.852 71 114.767 71.264 115.587C71.4977 116.314 71.88 116.983 72.3868 117.554C72.9595 118.2 73.7477 118.666 75.3239 119.599L257.54 227.408C261.764 229.907 263.877 231.157 264.589 232.777C265.211 234.19 265.209 235.799 264.585 237.212C263.869 238.83 261.754 240.076 257.525 242.567L129.619 317.901C125.258 320.469 123.078 321.753 121.286 321.577C119.724 321.424 118.301 320.613 117.374 319.347C116.312 317.897 116.312 315.37 116.312 310.317V264.189C116.312 259.091 116.312 256.542 117.383 255.088C118.317 253.82 119.75 253.011 121.32 252.867C123.121 252.701 125.309 254.016 129.685 256.645L134.627 259.614C136.209 260.564 137 261.039 137.846 261.236C138.596 261.41 139.373 261.426 140.129 261.283C140.983 261.121 141.793 260.679 143.412 259.794L175.06 242.51C179.557 240.054 181.806 238.826 182.57 237.186C183.236 235.756 183.255 234.11 182.624 232.665C181.9 231.008 179.681 229.726 175.244 227.163L84.2426 174.596C79.8975 172.086 77.725 170.831 75.942 171.017C74.3868 171.179 72.9737 171.992 72.0542 173.254C71 174.702 71 177.207 71 182.217V387.638C71 392.636 71 395.135 72.0518 396.581C72.9692 397.843 74.3795 398.657 75.9325 398.821C77.713 399.01 79.8832 397.763 84.2237 395.27L349.973 242.632C354.332 240.129 356.511 238.877 357.242 237.241C357.879 235.815 357.879 234.185 357.242 232.758C356.511 231.123 354.332 229.871 349.973 227.367Z" fill="white"/>
</g>
<defs>
<filter id="filter0_d" x="0" y="0.159912" width="428.72" height="469.68" filterUnits="userSpaceOnUse" color-interpolation-filters="sRGB">
<feFlood flood-opacity="0" result="BackgroundImageFix"/>
<feColorMatrix in="SourceAlpha" type="matrix" values="0 0 0 0 0 0 0 0 0 0 0 0 0 0 0 0 0 0 127 0"/>
<feOffset/>
<feGaussianBlur stdDeviation="35.5"/>
<feColorMatrix type="matrix" values="0 0 0 0 0.458824 0 0 0 0 0.321569 0 0 0 0 0.85098 0 0 0 1 0"/>
<feBlend mode="normal" in2="BackgroundImageFix" result="effect1_dropShadow"/>
<feBlend mode="normal" in="SourceGraphic" in2="effect1_dropShadow" result="shape"/>
</filter>
</defs>
</svg>
