<?xml version="1.0" encoding="UTF-8"?>
<svg xmlns="http://www.w3.org/2000/svg" xmlns:xlink="http://www.w3.org/1999/xlink" width="446pt" height="512pt" viewBox="0 0 446 512" version="1.1">
<g id="surface1">
<path style=" stroke:none;fill-rule:nonzero;fill:rgb(100%,100%,100%);fill-opacity:1;" d="M 425.1875 240.753906 L 26.453125 9.816406 C 17.773438 4.789062 13.433594 2.273438 9.871094 2.644531 C 6.765625 2.96875 3.941406 4.597656 2.105469 7.121094 C 0 10.015625 0 15.03125 0 25.058594 L 0 62.238281 C 0 65.882812 0 67.707031 0.523438 69.34375 C 0.988281 70.792969 1.746094 72.132812 2.753906 73.273438 C 3.894531 74.5625 5.457031 75.496094 8.589844 77.363281 L 282.589844 240.835938 C 290.964844 245.832031 295.152344 248.332031 296.566406 251.5625 C 297.800781 254.386719 297.796875 257.59375 296.558594 260.414062 C 295.136719 263.644531 290.945312 266.132812 282.558594 271.113281 L 96.617188 381.546875 C 87.902344 386.722656 83.542969 389.3125 79.957031 388.96875 C 76.832031 388.664062 73.984375 387.046875 72.128906 384.511719 C 70 381.605469 70 376.539062 70 366.398438 L 70 308.070312 C 70 298.199219 70 293.265625 72.003906 290.417969 C 73.914062 287.699219 76.949219 285.988281 80.265625 285.761719 C 83.742188 285.527344 87.960938 288.082031 96.402344 293.199219 C 99.46875 295.054688 101 295.980469 102.632812 296.382812 C 104.210938 296.773438 105.855469 296.804688 107.449219 296.484375 C 109.101562 296.148438 110.667969 295.285156 113.804688 293.558594 L 154.761719 271 C 163.679688 266.089844 168.136719 263.636719 169.65625 260.363281 C 170.980469 257.507812 171.019531 254.226562 169.765625 251.339844 C 168.324219 248.03125 163.925781 245.472656 155.132812 240.347656 L 26.488281 165.414062 C 17.800781 160.355469 13.457031 157.824219 9.890625 158.1875 C 6.78125 158.507812 3.953125 160.132812 2.109375 162.660156 C 0 165.558594 0 170.582031 0 180.636719 L 0 486.941406 C 0 496.96875 0 501.984375 2.105469 504.878906 C 3.941406 507.402344 6.765625 509.03125 9.871094 509.355469 C 13.433594 509.726562 17.773438 507.210938 26.453125 502.183594 L 425.1875 271.246094 C 433.828125 266.238281 438.148438 263.738281 439.597656 260.472656 C 440.863281 257.625 440.863281 254.375 439.597656 251.527344 C 438.148438 248.261719 433.828125 245.761719 425.1875 240.753906 Z M 425.1875 240.753906 "/>
</g>
</svg>
