<svg width="24" height="24" viewBox="0 0 24 24" fill="none" xmlns="http://www.w3.org/2000/svg">
<path d="M4.74997 4C3.24008 4 1.99997 5.24011 1.99997 6.75V7.25C1.99857 7.34938 2.01693 7.44806 2.05399 7.54028C2.09105 7.63251 2.14607 7.71645 2.21585 7.78723C2.28563 7.858 2.36879 7.91421 2.46048 7.95257C2.55217 7.99093 2.65058 8.01068 2.74997 8.01068C2.84936 8.01068 2.94777 7.99093 3.03946 7.95257C3.13115 7.91421 3.21431 7.858 3.28409 7.78723C3.35387 7.71645 3.40889 7.63251 3.44596 7.54028C3.48302 7.44806 3.50138 7.34938 3.49997 7.25V6.75C3.49997 6.05089 4.05086 5.5 4.74997 5.5H19.25C19.9491 5.5 20.5 6.05089 20.5 6.75V17.25C20.5 17.9491 19.9491 18.5 19.25 18.5H14.75C14.6506 18.4986 14.5519 18.517 14.4597 18.554C14.3675 18.5911 14.2835 18.6461 14.2127 18.7159C14.142 18.7857 14.0858 18.8688 14.0474 18.9605C14.009 19.0522 13.9893 19.1506 13.9893 19.25C13.9893 19.3494 14.009 19.4478 14.0474 19.5395C14.0858 19.6312 14.142 19.7143 14.2127 19.7841C14.2835 19.8539 14.3675 19.9089 14.4597 19.946C14.5519 19.983 14.6506 20.0014 14.75 20H19.25C20.7599 20 22 18.7599 22 17.25V6.75C22 5.24011 20.7599 4 19.25 4H4.74997ZM4.45993 9.5C3.83026 9.49449 3.19957 9.56239 2.582 9.7041C2.48489 9.72505 2.39291 9.76509 2.31139 9.82188C2.22988 9.87867 2.16046 9.95109 2.10717 10.0349C2.05387 10.1188 2.01777 10.2124 2.00094 10.3103C1.98412 10.4082 1.98691 10.5085 2.00916 10.6053C2.03141 10.7021 2.07267 10.7936 2.13055 10.8743C2.18843 10.955 2.26177 11.0235 2.34632 11.0757C2.43087 11.1278 2.52494 11.1627 2.62306 11.1782C2.72119 11.1937 2.82142 11.1896 2.91794 11.166C3.42037 11.0507 3.93293 10.9955 4.44626 11C6.11735 11.0153 7.77922 11.6644 9.05954 12.9609C10.3177 14.2349 10.962 15.8881 10.998 17.5586C11.0093 18.0742 10.9627 18.5909 10.8574 19.0967C10.8372 19.1931 10.8363 19.2926 10.8546 19.3894C10.8729 19.4862 10.91 19.5785 10.964 19.661C11.0179 19.7434 11.0876 19.8144 11.169 19.8699C11.2504 19.9255 11.342 19.9644 11.4384 19.9845C11.5349 20.0047 11.6343 20.0056 11.7312 19.9873C11.828 19.969 11.9202 19.9318 12.0027 19.8778C12.0851 19.8238 12.1561 19.7542 12.2116 19.6727C12.2671 19.5913 12.306 19.4998 12.3261 19.4033C12.4549 18.7851 12.5117 18.1547 12.498 17.5264C12.4541 15.4899 11.6618 13.4613 10.1269 11.9072C8.56525 10.3258 6.51284 9.51874 4.45993 9.5ZM4.31735 13C3.69088 12.9923 3.06237 13.1083 2.47165 13.3486C2.37737 13.3835 2.29106 13.437 2.21786 13.5059C2.14466 13.5748 2.08606 13.6578 2.04555 13.7498C2.00503 13.8418 1.98342 13.941 1.98201 14.0415C1.98059 14.142 1.9994 14.2418 2.03731 14.3349C2.07523 14.428 2.13147 14.5126 2.2027 14.5835C2.27393 14.6545 2.3587 14.7104 2.45196 14.7479C2.54522 14.7854 2.64508 14.8038 2.7456 14.802C2.84611 14.8002 2.94524 14.7782 3.03708 14.7373C3.43936 14.5736 3.86927 14.4947 4.2988 14.5C5.1172 14.5102 5.92726 14.8238 6.55368 15.4502C7.22633 16.1228 7.53877 17.0077 7.50095 17.8857C7.48509 18.2545 7.40725 18.6206 7.26657 18.9668C7.22944 19.058 7.21065 19.1557 7.21126 19.2542C7.21187 19.3527 7.23189 19.4502 7.27015 19.5409C7.30842 19.6317 7.36419 19.7141 7.43429 19.7833C7.50438 19.8525 7.58742 19.9072 7.67867 19.9444C7.76992 19.9815 7.86759 20.0003 7.9661 19.9997C8.06461 19.999 8.16203 19.979 8.2528 19.9408C8.34358 19.9025 8.42593 19.8467 8.49514 19.7766C8.56436 19.7065 8.6191 19.6235 8.65622 19.5322C8.86254 19.0245 8.97682 18.4885 8.99997 17.9502C9.05515 16.6692 8.58958 15.365 7.61423 14.3896C6.70565 13.4811 5.51096 13.0148 4.31735 13ZM3.99997 16.5C3.60215 16.5 3.22062 16.658 2.93931 16.9393C2.65801 17.2206 2.49997 17.6022 2.49997 18C2.49997 18.3978 2.65801 18.7794 2.93931 19.0607C3.22062 19.342 3.60215 19.5 3.99997 19.5C4.3978 19.5 4.77933 19.342 5.06063 19.0607C5.34194 18.7794 5.49997 18.3978 5.49997 18C5.49997 17.6022 5.34194 17.2206 5.06063 16.9393C4.77933 16.658 4.3978 16.5 3.99997 16.5Z" fill="#EAEAE4"/>
</svg>
