<svg width="24" height="24" viewBox="0 0 24 24" fill="none" xmlns="http://www.w3.org/2000/svg">
<path d="M14.0137 12.2237C13.8858 12.0959 13.8858 11.9041 14.0137 11.7763L18.8082 6.98174C18.9361 6.85388 19 6.6621 19 6.53425C19 6.40639 18.9361 6.21461 18.8082 6.08676L17.9132 5.19178C17.7854 5.06393 17.5936 5 17.4658 5C17.274 5 17.1461 5.06393 17.0183 5.19178L12.2237 9.9863C12.0959 10.1142 11.9041 10.1142 11.7763 9.9863L6.98174 5.19178C6.85388 5.06393 6.6621 5 6.53425 5C6.40639 5 6.21461 5.06393 6.08676 5.19178L5.19178 6.08676C5.06393 6.21461 5 6.40639 5 6.53425C5 6.6621 5.06393 6.85388 5.19178 6.98174L9.9863 11.7763C10.1142 11.9041 10.1142 12.0959 9.9863 12.2237L5.19178 17.0183C5.06393 17.1461 5 17.3379 5 17.4658C5 17.5936 5.06393 17.7854 5.19178 17.9132L6.08676 18.8082C6.21461 18.9361 6.40639 19 6.53425 19C6.6621 19 6.85388 18.9361 6.98174 18.8082L11.7763 14.0137C11.9041 13.8858 12.0959 13.8858 12.2237 14.0137L17.0183 18.8082C17.1461 18.9361 17.3379 19 17.4658 19C17.5936 19 17.7854 18.9361 17.9132 18.8082L18.8082 17.9132C18.9361 17.7854 19 17.5936 19 17.4658C19 17.3379 18.9361 17.1461 18.8082 17.0183L14.0137 12.2237Z" fill="#EDEEF0"/>
</svg>
