<svg width="28" height="28" viewBox="0 0 28 28" fill="none" xmlns="http://www.w3.org/2000/svg">
<path d="M23.4722 25H17.9722C17.1283 25 16.4444 24.3688 16.4444 23.5897V18.5128C16.4444 17.8895 15.8975 17.3846 15.2222 17.3846H12.7778C12.1025 17.3846 11.5556 17.8895 11.5556 18.5128V23.5897C11.5556 24.3688 10.8717 25 10.0278 25H4.52778C3.68383 25 3 24.3688 3 23.5897V12.8227C3 11.5258 3.64411 10.3006 4.74717 9.49846L13.4323 3.18108C13.7653 2.93964 14.2347 2.93964 14.5671 3.18108L23.2534 9.49846C24.3565 10.3006 25 11.5253 25 12.8216V23.5897C25 24.3688 24.3162 25 23.4722 25Z" fill="#7F58EC"/>
</svg>
