<svg width="56" height="56" viewBox="0 0 56 56" fill="none" xmlns="http://www.w3.org/2000/svg">
<path d="M9.4 9C6.439 9 4 11.4136 4 14.3438V41.6562C4 44.5864 6.439 47 9.4 47H46.6C49.561 47 52 44.5864 52 41.6562V20.2812C52 17.3511 49.561 14.9375 46.6 14.9375H28.0516L22.6891 10.5145C22.6883 10.5145 22.6875 10.5145 22.6867 10.5145C21.5009 9.53688 20.007 9 18.4633 9H9.4ZM9.4 12.5625H18.4633C19.166 12.5625 19.8431 12.8064 20.3828 13.2513L26.2469 18.0872C26.5706 18.3541 26.9786 18.5002 27.4 18.5H46.6C47.6158 18.5 48.4 19.276 48.4 20.2812V41.6562C48.4 42.6615 47.6158 43.4375 46.6 43.4375H9.4C8.3842 43.4375 7.6 42.6615 7.6 41.6562V14.3438C7.6 13.3385 8.3842 12.5625 9.4 12.5625ZM33.482 20.9075C31.7887 20.8862 30.0867 21.5004 28.7898 22.7537L28 23.519L27.2102 22.756C25.9132 21.5034 24.2131 20.889 22.5203 20.9098C20.8275 20.9306 19.1423 21.5862 17.8773 22.8696C15.3464 25.4359 15.399 29.6007 17.9922 32.1052L26.7438 40.5569C27.0799 40.881 27.5307 41.0624 28 41.0624C28.4693 41.0624 28.9201 40.881 29.2563 40.5569L38.0102 32.1029C40.6025 29.5992 40.6536 25.4361 38.125 22.8696C36.8602 21.5855 35.1754 20.9288 33.482 20.9075ZM22.5625 24.4491C23.3266 24.4399 24.095 24.7252 24.6953 25.3049L26.7438 27.281C27.0799 27.6051 27.5307 27.7865 28 27.7865C28.4693 27.7865 28.9201 27.6051 29.2563 27.281L31.3047 25.3049C31.3055 25.3042 31.3063 25.3034 31.307 25.3026C31.9074 24.7224 32.6738 24.4396 33.4375 24.4491C34.2012 24.4586 34.9613 24.7614 35.5469 25.356C36.7191 26.5445 36.6965 28.3938 35.4953 29.554L28 36.7926L20.5047 29.554C19.3035 28.3938 19.2809 26.5469 20.4531 25.3583C20.4531 25.3575 20.4531 25.3567 20.4531 25.356C21.0386 24.7619 21.7984 24.4583 22.5625 24.4491Z" fill="url(#paint0_linear)"/>
<defs>
<linearGradient id="paint0_linear" x1="4" y1="9" x2="52" y2="47" gradientUnits="userSpaceOnUse">
<stop stop-color="#E6DDFF"/>
<stop offset="1" stop-color="#7F58EC"/>
</linearGradient>
</defs>
</svg>
