<svg width="246" height="267" viewBox="0 0 246 267" fill="none" xmlns="http://www.w3.org/2000/svg">
<path d="M52.88 242.944C53.2 243.552 53.504 244.184 53.792 244.84C54.096 245.496 54.384 246.168 54.656 246.856C54.928 246.152 55.216 245.472 55.52 244.816C55.824 244.144 56.136 243.496 56.456 242.872L65.432 225.208C65.592 224.904 65.752 224.672 65.912 224.512C66.088 224.336 66.28 224.208 66.488 224.128C66.696 224.048 66.928 224 67.184 223.984C67.456 223.968 67.768 223.96 68.12 223.96H74.312V258.928H67.16V238.816C67.16 237.84 67.208 236.784 67.304 235.648L58.04 253.624C57.752 254.184 57.36 254.608 56.864 254.896C56.384 255.184 55.832 255.328 55.208 255.328H54.104C53.48 255.328 52.92 255.184 52.424 254.896C51.944 254.608 51.56 254.184 51.272 253.624L41.96 235.624C42.024 236.184 42.072 236.744 42.104 237.304C42.136 237.848 42.152 238.352 42.152 238.816V258.928H35V223.96H41.192C41.544 223.96 41.848 223.968 42.104 223.984C42.376 224 42.616 224.048 42.824 224.128C43.032 224.208 43.216 224.336 43.376 224.512C43.552 224.672 43.72 224.904 43.88 225.208L52.88 242.944Z" fill="white"/>
<path d="M90.7497 233.656C92.3978 233.656 93.9017 233.912 95.2617 234.424C96.6377 234.936 97.8138 235.68 98.7897 236.656C99.7817 237.632 100.55 238.832 101.094 240.256C101.654 241.664 101.934 243.264 101.934 245.056C101.934 245.616 101.91 246.072 101.862 246.424C101.814 246.776 101.726 247.056 101.598 247.264C101.47 247.472 101.294 247.616 101.07 247.696C100.862 247.776 100.59 247.816 100.254 247.816H85.9017C86.1417 249.896 86.7738 251.408 87.7977 252.352C88.8217 253.28 90.1418 253.744 91.7578 253.744C92.6217 253.744 93.3657 253.64 93.9897 253.432C94.6138 253.224 95.1658 252.992 95.6458 252.736C96.1418 252.48 96.5897 252.248 96.9897 252.04C97.4058 251.832 97.8378 251.728 98.2858 251.728C98.8778 251.728 99.3258 251.944 99.6298 252.376L101.79 255.04C101.022 255.92 100.19 256.64 99.2937 257.2C98.4137 257.744 97.5018 258.176 96.5578 258.496C95.6297 258.8 94.6937 259.008 93.7497 259.12C92.8217 259.248 91.9338 259.312 91.0858 259.312C89.3418 259.312 87.7017 259.032 86.1657 258.472C84.6457 257.896 83.3097 257.048 82.1577 255.928C81.0217 254.808 80.1178 253.416 79.4458 251.752C78.7898 250.088 78.4618 248.152 78.4618 245.944C78.4618 244.28 78.7417 242.704 79.3018 241.216C79.8778 239.728 80.6937 238.424 81.7497 237.304C82.8217 236.184 84.1097 235.296 85.6138 234.64C87.1338 233.984 88.8457 233.656 90.7497 233.656ZM90.8938 238.792C89.4698 238.792 88.3577 239.2 87.5578 240.016C86.7578 240.816 86.2298 241.976 85.9738 243.496H95.2617C95.2617 242.904 95.1818 242.328 95.0218 241.768C94.8778 241.208 94.6298 240.712 94.2778 240.28C93.9418 239.832 93.4938 239.472 92.9338 239.2C92.3737 238.928 91.6938 238.792 90.8938 238.792Z" fill="white"/>
<path d="M114.315 247.24V258.928H106.203V223.96H118.539C121.003 223.96 123.115 224.256 124.875 224.848C126.651 225.424 128.107 226.224 129.243 227.248C130.395 228.272 131.243 229.48 131.787 230.872C132.331 232.264 132.603 233.768 132.603 235.384C132.603 237.128 132.323 238.728 131.763 240.184C131.203 241.64 130.347 242.888 129.195 243.928C128.043 244.968 126.579 245.784 124.803 246.376C123.043 246.952 120.955 247.24 118.539 247.24H114.315ZM114.315 241.12H118.539C120.651 241.12 122.171 240.616 123.099 239.608C124.027 238.6 124.491 237.192 124.491 235.384C124.491 234.584 124.371 233.856 124.131 233.2C123.891 232.544 123.523 231.984 123.027 231.52C122.547 231.04 121.931 230.672 121.179 230.416C120.443 230.16 119.563 230.032 118.539 230.032H114.315V241.12Z" fill="white"/>
<path d="M144.493 223V258.928H137.052V223H144.493Z" fill="white"/>
<path d="M167.684 258.928C166.98 258.928 166.444 258.832 166.076 258.64C165.724 258.448 165.428 258.048 165.188 257.44L164.66 256.072C164.036 256.6 163.436 257.064 162.86 257.464C162.284 257.864 161.684 258.208 161.06 258.496C160.452 258.768 159.796 258.968 159.092 259.096C158.404 259.24 157.636 259.312 156.788 259.312C155.652 259.312 154.62 259.168 153.692 258.88C152.764 258.576 151.972 258.136 151.316 257.56C150.676 256.984 150.18 256.272 149.828 255.424C149.476 254.56 149.3 253.568 149.3 252.448C149.3 251.568 149.524 250.664 149.972 249.736C150.42 248.808 151.196 247.968 152.3 247.216C153.404 246.448 154.892 245.808 156.764 245.296C158.636 244.784 160.996 244.496 163.844 244.432V243.376C163.844 241.92 163.54 240.872 162.932 240.232C162.34 239.576 161.492 239.248 160.388 239.248C159.508 239.248 158.788 239.344 158.228 239.536C157.668 239.728 157.164 239.944 156.716 240.184C156.284 240.424 155.86 240.64 155.444 240.832C155.028 241.024 154.532 241.12 153.956 241.12C153.444 241.12 153.004 241 152.636 240.76C152.284 240.504 152.004 240.192 151.796 239.824L150.452 237.496C151.956 236.168 153.62 235.184 155.444 234.544C157.284 233.888 159.252 233.56 161.348 233.56C162.852 233.56 164.204 233.808 165.404 234.304C166.62 234.784 167.644 235.464 168.476 236.344C169.324 237.208 169.972 238.24 170.42 239.44C170.868 240.64 171.092 241.952 171.092 243.376V258.928H167.684ZM159.14 254.392C160.1 254.392 160.94 254.224 161.66 253.888C162.38 253.552 163.108 253.008 163.844 252.256V248.8C162.356 248.864 161.132 248.992 160.172 249.184C159.212 249.376 158.452 249.616 157.892 249.904C157.332 250.192 156.94 250.52 156.716 250.888C156.508 251.256 156.404 251.656 156.404 252.088C156.404 252.936 156.636 253.536 157.1 253.888C157.564 254.224 158.244 254.392 159.14 254.392Z" fill="white"/>
<path d="M185.613 265.384C185.389 265.88 185.117 266.24 184.798 266.464C184.477 266.704 183.965 266.824 183.262 266.824H177.693L182.493 256.744L172.557 234.04H179.133C179.71 234.04 180.157 234.168 180.477 234.424C180.798 234.68 181.021 234.984 181.15 235.336L185.229 246.064C185.613 247.056 185.925 248.048 186.165 249.04C186.326 248.528 186.501 248.024 186.693 247.528C186.885 247.032 187.07 246.528 187.245 246.016L190.941 235.336C191.07 234.968 191.318 234.664 191.686 234.424C192.07 234.168 192.477 234.04 192.91 234.04H198.91L185.613 265.384Z" fill="white"/>
<g filter="url(#filter0_d)">
<path d="M172.18 128.226L75.7961 72.76C74.2218 71.8541 73.4347 71.4011 72.789 71.4696C72.2257 71.5294 71.7142 71.8252 71.3815 72.2836C71 72.8091 71 73.7172 71 75.5336V86.3121C71 86.9767 71 87.309 71.0958 87.6072C71.1805 87.8711 71.3192 88.1145 71.503 88.322C71.7107 88.5564 71.9965 88.7259 72.5682 89.0648L72.5682 89.0648L138.656 128.241C140.188 129.149 140.954 129.603 141.213 130.192C141.438 130.706 141.438 131.291 141.211 131.804C140.951 132.392 140.184 132.844 138.65 133.75L92.2604 161.125C90.6789 162.058 89.8882 162.525 89.2383 162.461C88.6716 162.405 88.1555 162.11 87.8194 161.651C87.4341 161.123 87.4341 160.205 87.4341 158.369V141.607C87.4341 139.755 87.4341 138.828 87.8225 138.3C88.1612 137.839 88.681 137.545 89.2504 137.493C89.9036 137.432 90.6972 137.91 92.2843 138.865L94.0768 139.944C94.6505 140.29 94.9374 140.462 95.2445 140.534C95.5162 140.597 95.7982 140.603 96.0723 140.551C96.382 140.492 96.6757 140.331 97.2631 140.01L108.741 133.729C110.372 132.836 111.188 132.39 111.465 131.794C111.707 131.275 111.714 130.677 111.485 130.152C111.222 129.549 110.417 129.084 108.808 128.152L75.8029 109.05C74.227 108.138 73.4391 107.682 72.7924 107.749C72.2284 107.808 71.7158 108.104 71.3823 108.563C71 109.088 71 109.999 71 111.82V186.466C71 188.283 71 189.191 71.3815 189.716C71.7142 190.175 72.2257 190.471 72.789 190.53C73.4347 190.599 74.2218 190.146 75.7961 189.24L172.18 133.774C173.761 132.864 174.552 132.409 174.817 131.815C175.048 131.296 175.048 130.704 174.817 130.185C174.552 129.591 173.761 129.136 172.18 128.226Z" fill="#7F58EC"/>
</g>
<defs>
<filter id="filter0_d" x="0" y="0.462891" width="245.99" height="261.074" filterUnits="userSpaceOnUse" color-interpolation-filters="sRGB">
<feFlood flood-opacity="0" result="BackgroundImageFix"/>
<feColorMatrix in="SourceAlpha" type="matrix" values="0 0 0 0 0 0 0 0 0 0 0 0 0 0 0 0 0 0 127 0"/>
<feOffset/>
<feGaussianBlur stdDeviation="35.5"/>
<feColorMatrix type="matrix" values="0 0 0 0 0.458824 0 0 0 0 0.321569 0 0 0 0 0.85098 0 0 0 1 0"/>
<feBlend mode="normal" in2="BackgroundImageFix" result="effect1_dropShadow"/>
<feBlend mode="normal" in="SourceGraphic" in2="effect1_dropShadow" result="shape"/>
</filter>
</defs>
</svg>
