<svg width="56" height="56" viewBox="0 0 56 56" fill="none" xmlns="http://www.w3.org/2000/svg">
<path d="M32.0755 5.00007C31.6347 4.99619 31.2085 5.15841 30.8818 5.45446C30.5552 5.75051 30.3519 6.15869 30.3124 6.59782C30.273 7.03694 30.4003 7.47482 30.669 7.82436C30.9377 8.1739 31.3281 8.40948 31.7625 8.48425C34.4594 9.00193 36.9609 10.052 39.1461 11.5343C39.3365 11.6701 39.5522 11.7664 39.7803 11.8176C40.0085 11.8688 40.2447 11.8739 40.4749 11.8325C40.705 11.7912 40.9246 11.7042 41.1207 11.5767C41.3168 11.4493 41.4855 11.2839 41.6167 11.0903C41.748 10.8968 41.8393 10.6789 41.8851 10.4496C41.931 10.2202 41.9306 9.98401 41.8839 9.75483C41.8371 9.52565 41.7451 9.30813 41.6131 9.11504C41.4811 8.92195 41.3119 8.7572 41.1153 8.63047C38.5376 6.88188 35.5905 5.64426 32.425 5.03662C32.31 5.01277 32.1929 5.00052 32.0755 5.00007ZM23.8718 5.00235C23.7728 5.00544 23.6742 5.0169 23.5771 5.03662C20.4107 5.64318 17.4627 6.8802 14.8846 8.62818C14.6937 8.75747 14.5302 8.9231 14.4033 9.1156C14.2765 9.3081 14.1888 9.52371 14.1453 9.7501C14.1018 9.9765 14.1033 10.2093 14.1497 10.4351C14.1961 10.6609 14.2866 10.8754 14.4159 11.0662C14.5452 11.2571 14.7109 11.4206 14.9034 11.5474C15.0959 11.6742 15.3115 11.7618 15.5379 11.8053C15.7643 11.8488 15.997 11.8472 16.2228 11.8007C16.4486 11.7542 16.663 11.6637 16.8538 11.5343C19.041 10.0514 21.5392 9.00067 24.2351 8.48425C24.6721 8.40695 25.0636 8.16691 25.3307 7.81249C25.5978 7.45806 25.7207 7.01557 25.6747 6.57414C25.6286 6.13271 25.417 5.72513 25.0825 5.43348C24.748 5.14183 24.3154 4.98778 23.8718 5.00235ZM27.9999 13.9653C25.8068 13.9653 23.9398 14.8509 22.741 16.1997C21.5422 17.5485 20.9819 19.278 20.9819 20.9839C20.9819 22.6898 21.5422 24.4193 22.741 25.7681C23.9398 27.1168 25.8068 28.0025 27.9999 28.0025C30.1931 28.0025 32.0601 27.1168 33.2589 25.7681C34.4577 24.4193 35.018 22.6898 35.018 20.9839C35.018 19.278 34.4577 17.5485 33.2589 16.1997C32.0601 14.8509 30.1931 13.9653 27.9999 13.9653ZM10.062 14.0955C9.77698 14.101 9.49761 14.1758 9.24803 14.3136C8.99846 14.4513 8.78619 14.6478 8.6296 14.886C6.88116 17.4639 5.64365 20.4113 5.03607 23.577C4.99252 23.8034 4.99398 24.0362 5.04039 24.262C5.08679 24.4878 5.17723 24.7023 5.30652 24.8932C5.43581 25.084 5.60144 25.2476 5.79393 25.3744C5.98643 25.5013 6.20203 25.589 6.42841 25.6325C6.65479 25.676 6.88753 25.6745 7.11333 25.628C7.33912 25.5816 7.55356 25.4911 7.74439 25.3617C7.93522 25.2324 8.0987 25.0667 8.2255 24.8742C8.3523 24.6816 8.43993 24.466 8.48339 24.2396C9.00103 21.5425 10.051 19.0408 11.5332 16.8554C11.7187 16.5901 11.8271 16.2786 11.8466 15.9555C11.866 15.6324 11.7957 15.3101 11.6435 15.0245C11.4912 14.7388 11.2629 14.5008 10.9838 14.3369C10.7046 14.1729 10.3856 14.0894 10.062 14.0955ZM45.8854 14.0955C45.5662 14.0991 45.254 14.1896 44.9825 14.3575C44.7109 14.5253 44.4903 14.764 44.3444 15.0479C44.1985 15.3318 44.1327 15.6502 44.1543 15.9687C44.1758 16.2872 44.2838 16.5938 44.4667 16.8554C45.9495 19.0428 47.0001 21.5412 47.5165 24.2373C47.6037 24.6945 47.869 25.0983 48.254 25.3599C48.6389 25.6214 49.112 25.7194 49.5691 25.6321C50.0263 25.5449 50.43 25.2796 50.6916 24.8946C50.9531 24.5096 51.0511 24.0365 50.9638 23.5793C50.3573 20.4126 49.1204 17.4643 47.3726 14.886C47.2109 14.6401 46.9899 14.4388 46.73 14.3006C46.4701 14.1625 46.1796 14.0919 45.8854 14.0955ZM27.9999 17.4746C29.3158 17.4746 30.0806 17.9049 30.6363 18.5301C31.192 19.1553 31.5089 20.0578 31.5089 20.9839C31.5089 21.91 31.192 22.8124 30.6363 23.4377C30.0806 24.0629 29.3158 24.4932 27.9999 24.4932C26.6841 24.4932 25.9193 24.0629 25.3636 23.4377C24.8079 22.8124 24.4909 21.91 24.4909 20.9839C24.4909 20.0578 24.8079 19.1553 25.3636 18.5301C25.9193 17.9049 26.6841 17.4746 27.9999 17.4746ZM6.74716 30.3169C6.48735 30.318 6.23102 30.3768 5.99669 30.4891C5.76236 30.6013 5.55589 30.7642 5.39217 30.966C5.22845 31.1677 5.11158 31.4034 5.05 31.6558C4.98842 31.9082 4.98366 32.1712 5.03607 32.4257C5.64258 35.5925 6.87949 38.5407 8.62731 41.119C8.75659 41.3099 8.9222 41.4734 9.11468 41.6003C9.30717 41.7272 9.52276 41.8149 9.74914 41.8584C9.97551 41.9019 10.2082 41.9004 10.434 41.854C10.6598 41.8075 10.8743 41.7171 11.0651 41.5877C11.256 41.4584 11.4194 41.2927 11.5462 41.1002C11.6731 40.9077 11.7607 40.692 11.8042 40.4656C11.8476 40.2392 11.8461 40.0065 11.7996 39.7807C11.7531 39.5549 11.6626 39.3404 11.5332 39.1496C10.0504 36.9623 8.99976 34.4638 8.48339 31.7677C8.41166 31.3599 8.19804 30.9906 7.88031 30.7251C7.56257 30.4596 7.1612 30.315 6.74716 30.3169ZM49.2002 30.3192C48.7959 30.3293 48.4075 30.4787 48.1007 30.7423C47.7938 31.0058 47.5875 31.3672 47.5165 31.7654C46.9989 34.4625 45.9489 36.9642 44.4667 39.1496C44.3309 39.3401 44.2346 39.5557 44.1834 39.7839C44.1322 40.0122 44.1271 40.2483 44.1685 40.4785C44.2099 40.7087 44.2968 40.9283 44.4243 41.1244C44.5517 41.3206 44.7171 41.4892 44.9106 41.6205C45.1042 41.7518 45.322 41.843 45.5514 41.8889C45.7807 41.9348 46.0169 41.9343 46.246 41.8876C46.4752 41.8409 46.6927 41.7488 46.8858 41.6168C47.0788 41.4849 47.2436 41.3156 47.3703 41.119C49.1187 38.5411 50.3562 35.5937 50.9638 32.428C51.0172 32.1691 51.0114 31.9015 50.9469 31.6452C50.8824 31.3888 50.7608 31.1504 50.5913 30.9476C50.4217 30.7448 50.2085 30.583 49.9676 30.4742C49.7267 30.3654 49.4644 30.3124 49.2002 30.3192ZM20.1161 30.342C18.0323 30.342 16.3033 32.0699 16.3033 34.1552V35.421C16.3033 37.7464 17.773 39.7674 19.8671 41.103C21.9612 42.4387 24.7591 43.2118 27.9999 43.2118C31.2408 43.2118 34.0387 42.4387 36.1328 41.103C38.2269 39.7674 39.6966 37.7464 39.6966 35.421V34.1552C39.6966 32.0713 37.9689 30.342 35.8838 30.342H20.1161ZM20.1161 33.8514H35.8838C36.0724 33.8514 36.1876 33.9675 36.1876 34.1552V35.421C36.1876 36.2539 35.6446 37.2522 34.2458 38.1443C32.847 39.0365 30.6718 39.7025 27.9999 39.7025C25.3281 39.7025 23.1529 39.0365 21.7541 38.1443C20.3553 37.2522 19.8123 36.2539 19.8123 35.421V34.1552C19.8123 33.9665 19.9284 33.8514 20.1161 33.8514ZM15.8669 44.1554C15.4884 44.1521 15.1189 44.2713 14.8136 44.4952C14.5083 44.7191 14.2837 45.0358 14.1732 45.3979C14.0627 45.7601 14.0722 46.1482 14.2005 46.5045C14.3287 46.8607 14.5687 47.1659 14.8846 47.3745C17.4623 49.1231 20.4105 50.3607 23.5749 50.9684C23.8012 51.0119 24.034 51.0105 24.2598 50.9641C24.4856 50.9176 24.7 50.8272 24.8909 50.6979C25.0817 50.5686 25.2452 50.403 25.3721 50.2104C25.4989 50.0179 25.5866 49.8023 25.6301 49.5759C25.6736 49.3495 25.6721 49.1168 25.6256 48.891C25.5792 48.6651 25.4887 48.4507 25.3594 48.2598C25.23 48.069 25.0644 47.9055 24.8719 47.7787C24.6794 47.6519 24.4637 47.5642 24.2374 47.5208C21.5416 47.0031 19.0413 45.953 16.8561 44.4707C16.5657 44.2682 16.2209 44.1583 15.8669 44.1554ZM40.0804 44.1554C39.7444 44.1686 39.4193 44.278 39.1438 44.4707C36.958 45.9534 34.4607 47.0043 31.7648 47.5208C31.3077 47.608 30.9039 47.8733 30.6424 48.2583C30.3808 48.6433 30.2829 49.1164 30.3701 49.5736C30.4574 50.0308 30.7226 50.4346 31.1076 50.6961C31.4925 50.9577 31.9656 51.0556 32.4227 50.9684C35.5892 50.3618 38.5381 49.1228 41.1153 47.3745C41.4356 47.1637 41.678 46.8537 41.8054 46.492C41.9328 46.1303 41.9383 45.7368 41.8209 45.3717C41.7036 45.0066 41.4698 44.69 41.1555 44.4704C40.8412 44.2507 40.4636 44.1401 40.0804 44.1554Z" fill="url(#paint0_linear)"/>
<defs>
<linearGradient id="paint0_linear" x1="5" y1="5" x2="51" y2="51" gradientUnits="userSpaceOnUse">
<stop stop-color="#E6DDFF"/>
<stop offset="1" stop-color="#7F58EC"/>
</linearGradient>
</defs>
</svg>
