<svg width="56" height="56" viewBox="0 0 56 56" fill="none" xmlns="http://www.w3.org/2000/svg">
<path d="M39.9852 4.00037C39.5579 4.00808 39.1457 4.15628 38.8158 4.4209L27.4104 13.3095L19.7599 6.9224C19.5714 6.7619 19.3521 6.63937 19.1147 6.5619C18.8773 6.48442 18.6265 6.45352 18.3768 6.471C18.1271 6.48848 17.8834 6.55399 17.6599 6.66373C17.4363 6.77348 17.2373 6.92528 17.0743 7.11039C16.9113 7.29549 16.7876 7.51021 16.7103 7.74216C16.633 7.9741 16.6037 8.21866 16.624 8.46171C16.6443 8.70476 16.7139 8.94147 16.8286 9.15819C16.9434 9.3749 17.1012 9.5673 17.2928 9.72429L22.2467 13.8598H12.2105C7.6986 13.8598 4 17.4623 4 21.857V44.0029C4 48.3975 7.6986 52 12.2105 52H43.7895C48.3014 52 52 48.3975 52 44.0029V21.857C52 17.4623 48.3014 13.8598 43.7895 13.8598H32.7714L41.1842 7.30448C41.4991 7.06676 41.7291 6.73841 41.8414 6.3661C41.9537 5.9938 41.9427 5.59647 41.81 5.2306C41.6772 4.86473 41.4294 4.54893 41.1018 4.32808C40.7742 4.10722 40.3835 3.99256 39.9852 4.00037ZM12.2105 17.5508H27.3512H43.7895C46.2527 17.5508 48.2105 19.4577 48.2105 21.857V44.0029C48.2105 46.4021 46.2527 48.309 43.7895 48.309H12.2105C9.74729 48.309 7.78947 46.4021 7.78947 44.0029V21.857C7.78947 19.4577 9.74729 17.5508 12.2105 17.5508ZM42.5263 26.1631C42.0238 26.1631 41.5419 26.3575 41.1865 26.7036C40.8312 27.0497 40.6316 27.5191 40.6316 28.0086C40.6316 28.4981 40.8312 28.9675 41.1865 29.3136C41.5419 29.6597 42.0238 29.8541 42.5263 29.8541C43.0288 29.8541 43.5108 29.6597 43.8661 29.3136C44.2214 28.9675 44.4211 28.4981 44.4211 28.0086C44.4211 27.5191 44.2214 27.0497 43.8661 26.7036C43.5108 26.3575 43.0288 26.1631 42.5263 26.1631ZM42.5263 34.7754C42.0238 34.7754 41.5419 34.9698 41.1865 35.3159C40.8312 35.662 40.6316 36.1314 40.6316 36.6209C40.6316 37.1104 40.8312 37.5798 41.1865 37.9259C41.5419 38.272 42.0238 38.4664 42.5263 38.4664C43.0288 38.4664 43.5108 38.272 43.8661 37.9259C44.2214 37.5798 44.4211 37.1104 44.4211 36.6209C44.4211 36.1314 44.2214 35.662 43.8661 35.3159C43.5108 34.9698 43.0288 34.7754 42.5263 34.7754Z" fill="url(#paint0_linear)"/>
<defs>
<linearGradient id="paint0_linear" x1="4" y1="4" x2="51.0197" y2="53.2209" gradientUnits="userSpaceOnUse">
<stop stop-color="#E6DDFF"/>
<stop offset="1" stop-color="#7F58EC"/>
</linearGradient>
</defs>
</svg>
