<svg width="56" height="56" viewBox="0 0 56 56" fill="none" xmlns="http://www.w3.org/2000/svg">
<path d="M7.99752 5C7.33481 5 6.69924 5.26197 6.23063 5.72827C5.76202 6.19458 5.49876 6.82703 5.49876 7.48649C5.49876 8.14594 5.76202 8.77839 6.23063 9.2447C6.69924 9.711 7.33481 9.97297 7.99752 9.97297C8.3401 9.97281 8.67898 9.90256 8.99312 9.76657C9.14213 9.84143 9.30051 9.89614 9.46408 9.92927L37.7728 16.1892H7.37283C4.98032 16.1892 3 18.1598 3 20.5405V46.6486C3 49.0294 4.98032 51 7.37283 51H48.6024C50.9949 51 52.9752 49.0294 52.9752 46.6486V27.0627C53.0083 26.8625 53.0083 26.6583 52.9752 26.4581V20.5405C52.9752 18.1598 50.9949 16.1892 48.6024 16.1892H45.3716C45.4599 15.9404 45.4943 15.6758 45.4723 15.4128C45.4504 15.1498 45.3726 14.8944 45.2441 14.6636C45.1157 14.4327 44.9395 14.2316 44.7271 14.0735C44.5148 13.9154 44.2712 13.8039 44.0124 13.7464L10.2791 6.28695C10.2443 6.27949 10.2093 6.27301 10.1742 6.26753C9.95692 5.88315 9.64083 5.5632 9.25834 5.34046C8.87584 5.11772 8.4407 5.00022 7.99752 5ZM7.37283 19.9189H12.995V24.8919H6.74814V20.5405C6.74814 20.1737 7.00421 19.9189 7.37283 19.9189ZM16.7432 19.9189H48.6024C48.971 19.9189 49.2271 20.1737 49.2271 20.5405V24.8919H16.7432V19.9189ZM6.74814 28.6216H14.5616C14.7628 28.6545 14.9681 28.6545 15.1693 28.6216H49.2271V46.6486C49.2271 47.0155 48.971 47.2703 48.6024 47.2703H7.37283C7.00421 47.2703 6.74814 47.0155 6.74814 46.6486V28.6216ZM39.8567 31.1081C37.7224 31.1081 35.8843 31.9717 34.7079 33.2886C33.5315 34.6056 32.9851 36.2883 32.9851 37.9459C32.9851 39.6036 33.5315 41.2863 34.7079 42.6033C35.8843 43.9202 37.7224 44.7838 39.8567 44.7838C41.9911 44.7838 43.8291 43.9202 45.0055 42.6033C46.1819 41.2863 46.7283 39.6036 46.7283 37.9459C46.7283 36.2883 46.1819 34.6056 45.0055 33.2886C43.8291 31.9717 41.9911 31.1081 39.8567 31.1081ZM19.8666 32.3514C19.3696 32.3514 18.8929 32.5478 18.5415 32.8976C18.19 33.2473 17.9926 33.7216 17.9926 34.2162C17.9926 34.7108 18.19 35.1851 18.5415 35.5349C18.8929 35.8846 19.3696 36.0811 19.8666 36.0811C20.3637 36.0811 20.8403 35.8846 21.1918 35.5349C21.5433 35.1851 21.7407 34.7108 21.7407 34.2162C21.7407 33.7216 21.5433 33.2473 21.1918 32.8976C20.8403 32.5478 20.3637 32.3514 19.8666 32.3514ZM39.8567 34.8378C41.054 34.8378 41.7147 35.2175 42.2042 35.7654C42.6936 36.3133 42.9802 37.1171 42.9802 37.9459C42.9802 38.7748 42.6936 39.5785 42.2042 40.1265C41.7147 40.6744 41.054 41.0541 39.8567 41.0541C38.6594 41.0541 37.9987 40.6744 37.5093 40.1265C37.0198 39.5785 36.7333 38.7748 36.7333 37.9459C36.7333 37.1171 37.0198 36.3133 37.5093 35.7654C37.9987 35.2175 38.6594 34.8378 39.8567 34.8378ZM13.6197 36.0811C13.1227 36.0811 12.646 36.2776 12.2946 36.6273C11.9431 36.977 11.7457 37.4514 11.7457 37.9459C11.7457 38.4405 11.9431 38.9149 12.2946 39.2646C12.646 39.6143 13.1227 39.8108 13.6197 39.8108C14.1168 39.8108 14.5934 39.6143 14.9449 39.2646C15.2964 38.9149 15.4938 38.4405 15.4938 37.9459C15.4938 37.4514 15.2964 36.977 14.9449 36.6273C14.5934 36.2776 14.1168 36.0811 13.6197 36.0811ZM26.1135 36.0811C25.6165 36.0811 25.1398 36.2776 24.7884 36.6273C24.4369 36.977 24.2395 37.4514 24.2395 37.9459C24.2395 38.4405 24.4369 38.9149 24.7884 39.2646C25.1398 39.6143 25.6165 39.8108 26.1135 39.8108C26.6106 39.8108 27.0872 39.6143 27.4387 39.2646C27.7902 38.9149 27.9876 38.4405 27.9876 37.9459C27.9876 37.4514 27.7902 36.977 27.4387 36.6273C27.0872 36.2776 26.6106 36.0811 26.1135 36.0811ZM19.8666 39.8108C19.3696 39.8108 18.8929 40.0073 18.5415 40.357C18.19 40.7067 17.9926 41.1811 17.9926 41.6757C17.9926 42.1703 18.19 42.6446 18.5415 42.9943C18.8929 43.3441 19.3696 43.5405 19.8666 43.5405C20.3637 43.5405 20.8403 43.3441 21.1918 42.9943C21.5433 42.6446 21.7407 42.1703 21.7407 41.6757C21.7407 41.1811 21.5433 40.7067 21.1918 40.357C20.8403 40.0073 20.3637 39.8108 19.8666 39.8108Z" fill="url(#paint0_linear)"/>
<defs>
<linearGradient id="paint0_linear" x1="3" y1="5" x2="53" y2="51" gradientUnits="userSpaceOnUse">
<stop stop-color="#E6DDFF"/>
<stop offset="1" stop-color="#7F58EC"/>
</linearGradient>
</defs>
</svg>
