<svg width="20" height="20" viewBox="0 0 20 20" fill="none" xmlns="http://www.w3.org/2000/svg">
<path fill-rule="evenodd" clip-rule="evenodd" d="M10.0001 3.45454C9.25745 3.45454 8.54526 3.76103 8.02016 4.30659C7.49505 4.85215 7.20006 5.59209 7.20006 6.36363V8.54547H12.8001V6.36363C12.8001 5.59209 12.5051 4.85215 11.98 4.30659C11.4549 3.76103 10.7427 3.45454 10.0001 3.45454ZM14.2001 8.54547V6.36363C14.2001 5.20632 13.7576 4.09642 12.9699 3.27808C12.1823 2.45974 11.114 2 10.0001 2C8.88615 2 7.81786 2.45974 7.03021 3.27808C6.24255 4.09642 5.80006 5.20632 5.80006 6.36363V8.54547H5.1C3.9402 8.54547 3 9.5223 3 10.7273V15.8182C3 17.0232 3.9402 18 5.1 18H14.9C16.0598 18 17 17.0232 17 15.8182V10.7273C17 9.5223 16.0598 8.54547 14.9 8.54547H14.2001ZM5.1 10C4.7134 10 4.4 10.3256 4.4 10.7273V15.8182C4.4 16.2198 4.7134 16.5455 5.1 16.5455H14.9C15.2866 16.5455 15.6 16.2198 15.6 15.8182V10.7273C15.6 10.3256 15.2866 10 14.9 10H5.1Z" fill="#EAEAE4"/>
</svg>
