<svg width="48" height="48" viewBox="0 0 48 48" fill="none" xmlns="http://www.w3.org/2000/svg">
<path fill-rule="evenodd" clip-rule="evenodd" d="M24.0001 8.45454C22.1967 8.45454 20.4671 9.18246 19.1918 10.4782C17.9166 11.7739 17.2001 13.5312 17.2001 15.3636V20.5455H30.8001V15.3636C30.8001 13.5312 30.0837 11.7739 28.8085 10.4782C27.5332 9.18246 25.8036 8.45454 24.0001 8.45454ZM34.2001 20.5455V15.3636C34.2001 12.615 33.1255 9.97899 31.2126 8.03543C29.2998 6.09188 26.7053 5 24.0001 5C21.2949 5 18.7005 6.09188 16.7876 8.03543C14.8748 9.97899 13.8001 12.615 13.8001 15.3636V20.5455H12.1C9.28335 20.5455 7 22.8655 7 25.7273V37.8182C7 40.68 9.28335 43 12.1 43H35.9C38.7167 43 41 40.68 41 37.8182V25.7273C41 22.8655 38.7167 20.5455 35.9 20.5455H34.2001ZM12.1 24C11.1611 24 10.4 24.7734 10.4 25.7273V37.8182C10.4 38.7721 11.1611 39.5455 12.1 39.5455H35.9C36.8389 39.5455 37.6 38.7721 37.6 37.8182V25.7273C37.6 24.7734 36.8389 24 35.9 24H12.1Z" fill="#EAEAE4"/>
</svg>
