<svg width="140" height="148" viewBox="0 0 140 148" fill="none" xmlns="http://www.w3.org/2000/svg">
<g filter="url(#filter0_d)">
<path d="M70 46C64.4993 46 60 50.3193 60 55.6V60.4H55.625C52.5406 60.4 50 62.839 50 65.8V88.6C50 91.561 52.5406 94 55.625 94H84.375C87.4594 94 90 91.561 90 88.6V65.8C90 62.839 87.4594 60.4 84.375 60.4H80V55.6C80 50.3193 75.5007 46 70 46ZM70 49.6C73.4743 49.6 76.25 52.2647 76.25 55.6V60.4H63.75V55.6C63.75 52.2647 66.5257 49.6 70 49.6ZM55.625 64H84.375C85.4331 64 86.25 64.7842 86.25 65.8V88.6C86.25 89.6158 85.4331 90.4 84.375 90.4H55.625C54.5669 90.4 53.75 89.6158 53.75 88.6V65.8C53.75 64.7842 54.5669 64 55.625 64ZM70 73.6C69.0054 73.6 68.0516 73.9793 67.3483 74.6544C66.6451 75.3295 66.25 76.2452 66.25 77.2C66.25 78.1548 66.6451 79.0705 67.3483 79.7456C68.0516 80.4207 69.0054 80.8 70 80.8C70.9946 80.8 71.9484 80.4207 72.6517 79.7456C73.3549 79.0705 73.75 78.1548 73.75 77.2C73.75 76.2452 73.3549 75.3295 72.6517 74.6544C71.9484 73.9793 70.9946 73.6 70 73.6Z" fill="#7F58EC"/>
</g>
<defs>
<filter id="filter0_d" x="-8" y="-4" width="156" height="156" filterUnits="userSpaceOnUse" color-interpolation-filters="sRGB">
<feFlood flood-opacity="0" result="BackgroundImageFix"/>
<feColorMatrix in="SourceAlpha" type="matrix" values="0 0 0 0 0 0 0 0 0 0 0 0 0 0 0 0 0 0 127 0"/>
<feOffset dy="4"/>
<feGaussianBlur stdDeviation="25"/>
<feColorMatrix type="matrix" values="0 0 0 0 0.498039 0 0 0 0 0.345098 0 0 0 0 0.92549 0 0 0 1 0"/>
<feBlend mode="normal" in2="BackgroundImageFix" result="effect1_dropShadow"/>
<feBlend mode="normal" in="SourceGraphic" in2="effect1_dropShadow" result="shape"/>
</filter>
</defs>
</svg>
