<svg width="146" height="48" viewBox="0 0 146 48" fill="none" xmlns="http://www.w3.org/2000/svg">
<g clip-path="url(#clip0)">
<path d="M63.1647 24.3773C63.3466 24.7242 63.5194 25.0847 63.6832 25.4589C63.856 25.8332 64.0197 26.2165 64.1743 26.609C64.329 26.2074 64.4927 25.8195 64.6655 25.4452C64.8384 25.0619 65.0157 24.6922 65.1976 24.3363L70.3005 14.2596C70.3914 14.0862 70.4824 13.9538 70.5733 13.8625C70.6734 13.7621 70.7825 13.6891 70.9008 13.6435C71.019 13.5978 71.1509 13.5705 71.2965 13.5613C71.4511 13.5522 71.6285 13.5476 71.8286 13.5476H75.3487V33.4956H71.2828V22.0225C71.2828 21.4657 71.3101 20.8633 71.3647 20.2152L66.0981 30.4699C65.9344 30.7893 65.7116 31.0312 65.4296 31.1955C65.1567 31.3598 64.8429 31.4419 64.4882 31.4419H63.8605C63.5058 31.4419 63.1874 31.3598 62.9055 31.1955C62.6326 31.0312 62.4143 30.7893 62.2506 30.4699L56.9567 20.2015C56.9931 20.521 57.0204 20.8405 57.0386 21.1599C57.0568 21.4702 57.0659 21.7578 57.0659 22.0225V33.4956H53V13.5476H56.5201C56.7202 13.5476 56.8931 13.5522 57.0386 13.5613C57.1932 13.5705 57.3297 13.5978 57.4479 13.6435C57.5662 13.6891 57.6708 13.7621 57.7617 13.8625C57.8618 13.9538 57.9573 14.0862 58.0482 14.2596L63.1647 24.3773Z" fill="white"/>
<path d="M84.6935 19.0789C85.6304 19.0789 86.4854 19.2249 87.2585 19.517C88.0408 19.8091 88.7093 20.2335 89.2642 20.7903C89.8281 21.347 90.2647 22.0316 90.574 22.8439C90.8924 23.6471 91.0515 24.5599 91.0515 25.5821C91.0515 25.9016 91.0379 26.1617 91.0106 26.3625C90.9833 26.5633 90.9333 26.7231 90.8605 26.8417C90.7878 26.9604 90.6877 27.0425 90.5604 27.0882C90.4421 27.1338 90.2875 27.1566 90.0965 27.1566H81.9374C82.0739 28.3432 82.4331 29.2057 83.0153 29.7442C83.5974 30.2736 84.3478 30.5383 85.2665 30.5383C85.7577 30.5383 86.1807 30.479 86.5354 30.3604C86.8901 30.2417 87.204 30.1093 87.4768 29.9633C87.7588 29.8173 88.0135 29.6849 88.2409 29.5663C88.4774 29.4476 88.723 29.3883 88.9777 29.3883C89.3142 29.3883 89.5689 29.5115 89.7417 29.7579L90.9697 31.2777C90.5331 31.7797 90.0601 32.1904 89.5507 32.5099C89.0504 32.8202 88.532 33.0666 87.9953 33.2492C87.4677 33.4226 86.9356 33.5413 86.399 33.6051C85.8714 33.6782 85.3666 33.7147 84.8845 33.7147C83.893 33.7147 82.9607 33.5549 82.0875 33.2355C81.2234 32.9069 80.4639 32.4231 79.809 31.7842C79.1632 31.1453 78.6492 30.3512 78.2672 29.402C77.8943 28.4527 77.7078 27.3483 77.7078 26.0887C77.7078 25.1395 77.867 24.2404 78.1853 23.3916C78.5128 22.5427 78.9767 21.7988 79.577 21.1599C80.1864 20.521 80.9187 20.0144 81.7737 19.6402C82.6378 19.266 83.6111 19.0789 84.6935 19.0789ZM84.7753 22.0088C83.9658 22.0088 83.3336 22.2415 82.8788 22.707C82.424 23.1634 82.1239 23.8251 81.9783 24.6922H87.2585C87.2585 24.3545 87.2131 24.0259 87.1221 23.7065C87.0402 23.387 86.8992 23.1041 86.6991 22.8576C86.5081 22.602 86.2534 22.3967 85.9351 22.2415C85.6167 22.0863 85.2301 22.0088 84.7753 22.0088Z" fill="white"/>
<path d="M98.0903 26.828V33.4956H93.4787V13.5476H100.492C101.892 13.5476 103.093 13.7165 104.094 14.0542C105.103 14.3828 105.931 14.8392 106.577 15.4233C107.232 16.0075 107.714 16.6966 108.023 17.4907C108.332 18.2848 108.487 19.1428 108.487 20.0646C108.487 21.0595 108.328 21.9723 108.009 22.8028C107.691 23.6334 107.204 24.3454 106.55 24.9387C105.895 25.5319 105.062 25.9974 104.053 26.3352C103.052 26.6637 101.865 26.828 100.492 26.828H98.0903ZM98.0903 23.3368H100.492C101.692 23.3368 102.556 23.0493 103.084 22.4743C103.612 21.8992 103.875 21.096 103.875 20.0646C103.875 19.6083 103.807 19.193 103.671 18.8187C103.534 18.4445 103.325 18.125 103.043 17.8604C102.77 17.5865 102.42 17.3766 101.992 17.2306C101.574 17.0845 101.074 17.0115 100.492 17.0115H98.0903V23.3368Z" fill="white"/>
<path d="M115.246 13V33.4956H111.016V13H115.246Z" fill="white"/>
<path d="M128.43 33.4956C128.03 33.4956 127.725 33.4409 127.516 33.3313C127.316 33.2218 127.148 32.9936 127.011 32.6468L126.711 31.8664C126.356 32.1676 126.015 32.4323 125.688 32.6605C125.36 32.8886 125.019 33.0849 124.665 33.2492C124.319 33.4043 123.946 33.5184 123.546 33.5915C123.155 33.6736 122.718 33.7147 122.236 33.7147C121.59 33.7147 121.003 33.6325 120.476 33.4682C119.948 33.2948 119.498 33.0438 119.125 32.7152C118.761 32.3866 118.479 31.9805 118.279 31.4967C118.079 31.0038 117.979 30.4379 117.979 29.799C117.979 29.297 118.106 28.7813 118.361 28.2519C118.616 27.7225 119.057 27.2433 119.685 26.8143C120.312 26.3762 121.158 26.0111 122.222 25.7191C123.287 25.427 124.628 25.2627 126.247 25.2262V24.6238C126.247 23.7932 126.074 23.1953 125.729 22.8302C125.392 22.456 124.91 22.2689 124.283 22.2689C123.782 22.2689 123.373 22.3237 123.055 22.4332C122.736 22.5427 122.45 22.6659 122.195 22.8028C121.949 22.9398 121.708 23.063 121.472 23.1725C121.235 23.282 120.953 23.3368 120.626 23.3368C120.335 23.3368 120.085 23.2683 119.876 23.1314C119.675 22.9854 119.516 22.8074 119.398 22.5975L118.634 21.2694C119.489 20.5119 120.435 19.9505 121.472 19.5854C122.518 19.2112 123.637 19.0241 124.828 19.0241C125.683 19.0241 126.452 19.1656 127.134 19.4485C127.825 19.7223 128.408 20.1103 128.881 20.6123C129.363 21.1051 129.731 21.6939 129.986 22.3784C130.24 23.063 130.368 23.8114 130.368 24.6238V33.4956H128.43ZM123.573 30.908C124.119 30.908 124.596 30.8122 125.006 30.6205C125.415 30.4288 125.829 30.1185 126.247 29.6895V27.718C125.401 27.7545 124.705 27.8275 124.16 27.937C123.614 28.0466 123.182 28.1835 122.864 28.3478C122.545 28.512 122.322 28.6992 122.195 28.9091C122.077 29.119 122.018 29.3472 122.018 29.5936C122.018 30.0774 122.15 30.4197 122.413 30.6205C122.677 30.8122 123.064 30.908 123.573 30.908Z" fill="white"/>
<path d="M138.623 37.1785C138.496 37.4615 138.341 37.6669 138.159 37.7946C137.977 37.9315 137.686 38 137.286 38H134.121L136.849 32.2497L131.201 19.2979H134.939C135.267 19.2979 135.521 19.3709 135.703 19.517C135.885 19.663 136.013 19.8364 136.085 20.0372L138.405 26.1572C138.623 26.7231 138.8 27.289 138.937 27.8549C139.028 27.5628 139.128 27.2753 139.237 26.9923C139.346 26.7094 139.451 26.4219 139.551 26.1298L141.652 20.0372C141.725 19.8273 141.866 19.6539 142.075 19.517C142.293 19.3709 142.525 19.2979 142.771 19.2979H146.182L138.623 37.1785Z" fill="white"/>
<g filter="url(#filter0_d)">
<path d="M37.7939 23.5565L10.1988 7.6893C9.80528 7.46303 9.60852 7.3499 9.44712 7.36707C9.30633 7.38204 9.17849 7.456 9.09534 7.57059C9 7.70195 9 7.92891 9 8.38282V11.6724C9 11.8386 9 11.9217 9.02396 11.9963C9.04516 12.0623 9.07985 12.1232 9.12583 12.1751C9.17779 12.2337 9.24929 12.276 9.3923 12.3607L28.3004 23.5601C28.6838 23.7872 28.8755 23.9008 28.9401 24.048C28.9966 24.1764 28.9964 24.3227 28.9397 24.451C28.8748 24.5981 28.6829 24.7112 28.299 24.9376L14.8575 32.863C14.4622 33.0961 14.2645 33.2127 14.1021 33.1967C13.9604 33.1827 13.8314 33.109 13.7475 32.9941C13.6512 32.8623 13.6512 32.6328 13.6512 32.1739V27.0633C13.6512 26.6004 13.6512 26.3689 13.7482 26.2368C13.8329 26.1216 13.9628 26.0481 14.1051 26.0349C14.2684 26.0198 14.4667 26.1391 14.8635 26.3777L14.8635 26.3778L15.5834 26.8107L15.5834 26.8107C15.7267 26.8969 15.7984 26.94 15.8751 26.9579C15.943 26.9737 16.0135 26.9752 16.0819 26.9622C16.1593 26.9475 16.2327 26.9074 16.3795 26.8271L16.3795 26.8271L19.8449 24.9324C20.2531 24.7092 20.4572 24.5977 20.5265 24.4487C20.5869 24.3187 20.5887 24.1692 20.5314 24.0378C20.4657 23.8872 20.2643 23.7708 19.8617 23.5379L19.8616 23.5379L10.2005 17.951C9.80657 17.7232 9.60962 17.6093 9.44798 17.6262C9.307 17.6409 9.1789 17.7148 9.09555 17.8295C9 17.961 9 18.1885 9 18.6435V40.1172C9 40.5711 9 40.798 9.09534 40.9294C9.17849 41.044 9.30633 41.118 9.44712 41.1329C9.60852 41.1501 9.80527 41.037 10.1988 40.8107L37.7939 24.9435C38.1895 24.7161 38.3873 24.6023 38.4536 24.4537C38.5114 24.3241 38.5114 24.1759 38.4536 24.0463C38.3873 23.8977 38.1895 23.7839 37.7939 23.5565Z" fill="#7F58EC"/>
</g>
</g>
<defs>
<filter id="filter0_d" x="-16" y="-14.6346" width="79.4969" height="83.7693" filterUnits="userSpaceOnUse" color-interpolation-filters="sRGB">
<feFlood flood-opacity="0" result="BackgroundImageFix"/>
<feColorMatrix in="SourceAlpha" type="matrix" values="0 0 0 0 0 0 0 0 0 0 0 0 0 0 0 0 0 0 127 0"/>
<feOffset dy="3"/>
<feGaussianBlur stdDeviation="12.5"/>
<feColorMatrix type="matrix" values="0 0 0 0 0.458824 0 0 0 0 0.321569 0 0 0 0 0.85098 0 0 0 1 0"/>
<feBlend mode="normal" in2="BackgroundImageFix" result="effect1_dropShadow"/>
<feBlend mode="normal" in="SourceGraphic" in2="effect1_dropShadow" result="shape"/>
</filter>
<clipPath id="clip0">
<rect width="146" height="48" fill="white"/>
</clipPath>
</defs>
</svg>
