<svg width="48" height="48" viewBox="0 0 48 48" fill="none" xmlns="http://www.w3.org/2000/svg">
<path d="M43.2 23.9998C43.2 23.3982 42.8544 22.8942 42.3632 22.6206L42.3728 22.6046L10.5328 5.0974L10.5008 5.1134C10.2416 4.931 9.9424 4.7998 9.6 4.7998C8.7168 4.7998 8 5.5166 8 6.3998C8 6.4014 8.0016 6.403 8.0016 6.4062H8V23.9998V41.5934H8.0016C8.0016 41.5966 8 41.5982 8 41.5998C8 42.483 8.7168 43.1998 9.6 43.1998C9.9424 43.1998 10.2416 43.0686 10.5024 42.8862L10.5328 42.9022L42.3728 25.395L42.3632 25.379C42.8544 25.1054 43.2 24.6014 43.2 23.9998Z" fill="#EAEAE4"/>
</svg>
