<svg width="30" height="34.5" viewBox="9 7 30 34.5" fill="none" xmlns="http://www.w3.org/2000/svg">
<path d="M37.7939 23.5565L10.1988 7.6893C9.80528 7.46303 9.60852 7.3499 9.44712 7.36707C9.30633 7.38204 9.17849 7.456 9.09534 7.57059C9 7.70195 9 7.92891 9 8.38282V11.6724C9 11.8386 9 11.9217 9.02396 11.9963C9.04516 12.0623 9.07985 12.1232 9.12583 12.1751C9.17779 12.2337 9.24929 12.276 9.3923 12.3607L28.3004 23.5601C28.6838 23.7872 28.8755 23.9008 28.9401 24.048C28.9966 24.1764 28.9964 24.3227 28.9397 24.451C28.8748 24.5981 28.6829 24.7112 28.299 24.9376L14.8575 32.863C14.4622 33.0961 14.2645 33.2127 14.1021 33.1967C13.9604 33.1827 13.8314 33.109 13.7475 32.9941C13.6512 32.8623 13.6512 32.6328 13.6512 32.1739V27.0633C13.6512 26.6004 13.6512 26.3689 13.7482 26.2368C13.8329 26.1216 13.9628 26.0481 14.1051 26.0349C14.2684 26.0198 14.4667 26.1391 14.8635 26.3777L14.8635 26.3778L15.5834 26.8107L15.5834 26.8107C15.7267 26.8969 15.7984 26.94 15.8751 26.9579C15.943 26.9737 16.0135 26.9752 16.0819 26.9622C16.1593 26.9475 16.2327 26.9074 16.3795 26.8271L16.3795 26.8271L19.8449 24.9324C20.2531 24.7092 20.4572 24.5977 20.5265 24.4487C20.5869 24.3187 20.5887 24.1692 20.5314 24.0378C20.4657 23.8872 20.2643 23.7708 19.8617 23.5379L19.8616 23.5379L10.2005 17.951C9.80657 17.7232 9.60962 17.6093 9.44798 17.6262C9.307 17.6409 9.1789 17.7148 9.09555 17.8295C9 17.961 9 18.1885 9 18.6435V40.1172C9 40.5711 9 40.798 9.09534 40.9294C9.17849 41.044 9.30633 41.118 9.44712 41.1329C9.60852 41.1501 9.80527 41.037 10.1988 40.8107L37.7939 24.9435C38.1895 24.7161 38.3873 24.6023 38.4536 24.4537C38.5114 24.3241 38.5114 24.1759 38.4536 24.0463C38.3873 23.8977 38.1895 23.7839 37.7939 23.5565Z" fill="#7F58EC"/>
</svg>
