<svg width="28" height="28" viewBox="0 0 28 28" fill="none" xmlns="http://www.w3.org/2000/svg">
<path d="M14.5 2C8.14855 2 3 7.14855 3 13.5C3 19.8514 8.14855 25 14.5 25C20.8514 25 26 19.8514 26 13.5C26 7.14855 20.8514 2 14.5 2ZM14.5 4.3C19.5807 4.3 23.7 8.4193 23.7 13.5C23.7 15.3369 23.1542 17.0433 22.2266 18.4796L21.3416 17.7945C19.5568 16.418 16.2675 15.8 14.5 15.8C12.7325 15.8 9.44205 16.418 7.6584 17.7945L6.77344 18.4818C5.84515 17.0452 5.3 15.3376 5.3 13.5C5.3 8.4193 9.4193 4.3 14.5 4.3ZM14.5 6.3125C12.4392 6.3125 10.7625 7.9892 10.7625 10.05C10.7625 12.1108 12.4392 13.7875 14.5 13.7875C16.5608 13.7875 18.2375 12.1108 18.2375 10.05C18.2375 7.9892 16.5608 6.3125 14.5 6.3125Z" fill="#58217A"/>
</svg>
