<svg width="28" height="28" viewBox="0 0 28 28" fill="none" xmlns="http://www.w3.org/2000/svg">
<path d="M22.4572 21H5.54292C4.84 21 4.19542 20.6459 3.81917 20.0521C3.44292 19.4583 3.39625 18.725 3.6955 18.0892L5.25008 14.9614V11.3056C5.25008 6.49953 8.90817 2.56319 13.5783 2.34328C15.9998 2.23361 18.2917 3.08469 20.0387 4.75128C21.7876 6.41903 22.7501 8.66778 22.7501 11.0834V14.9614L24.2959 18.0723C24.6033 18.725 24.5572 19.4589 24.181 20.0527C23.8047 20.6465 23.1602 21 22.4572 21ZM13.6198 3.21769H13.6256H13.6198ZM10.5526 22.1667C10.8314 23.8193 12.2688 25.0834 14.0001 25.0834C15.7314 25.0834 17.1682 23.8193 17.4476 22.1667H10.5526Z" fill="#1D1C1F"/>
</svg>
