<svg width="31" height="36" viewBox="0 0 31 36" fill="none" xmlns="http://www.w3.org/2000/svg">
<path fill-rule="evenodd" clip-rule="evenodd" d="M17.9795 1.44612C16.4302 0.551471 14.521 0.552794 12.9729 1.44959L2.49368 7.5202C0.950238 8.41431 0 10.0629 0 11.8467V24.1449C0 25.9277 0.949318 27.5757 2.49157 28.4701L12.9708 34.5476C14.5199 35.446 16.4313 35.4473 17.9817 34.551L28.5024 28.469C30.0481 27.5755 31 25.9256 31 24.1403V11.8513C31 10.0651 30.0471 8.41456 28.5003 7.52134L17.9795 1.44612Z" fill="#C6C6C6"/>
<path d="M23.1675 12.0003C22.9574 12.0065 22.7581 12.0933 22.6116 12.2424L12.6718 22.0702L8.39198 17.8386C8.31748 17.7619 8.22824 17.7007 8.12948 17.6585C8.03073 17.6163 7.92446 17.594 7.81689 17.5929C7.70931 17.5918 7.6026 17.6119 7.503 17.6522C7.4034 17.6924 7.31292 17.7518 7.23685 17.827C7.16078 17.9022 7.10065 17.9917 7.05999 18.0902C7.01933 18.1886 6.99895 18.2942 7.00004 18.4005C7.00114 18.5069 7.02368 18.612 7.06636 18.7096C7.10905 18.8072 7.171 18.8955 7.2486 18.9691L12.1001 23.7659C12.2517 23.9158 12.4574 24 12.6718 24C12.8862 24 13.0918 23.9158 13.2435 23.7659L23.755 13.3729C23.8718 13.2606 23.9516 13.116 23.9839 12.9581C24.0163 12.8002 23.9996 12.6363 23.9361 12.4879C23.8725 12.3396 23.7652 12.2136 23.628 12.1266C23.4909 12.0396 23.3304 11.9956 23.1675 12.0003Z" fill="#2F8C2D" stroke="#2F8C2D"/>
</svg>
