<svg width="28" height="28" viewBox="0 0 28 28" fill="none" xmlns="http://www.w3.org/2000/svg">
<g opacity="0.9">
<path d="M5.54163 4.66669C3.7801 4.66669 2.3333 6.11349 2.3333 7.87502V8.45835C2.33166 8.5743 2.35308 8.68942 2.39632 8.79702C2.43955 8.90461 2.50375 9.00254 2.58516 9.08512C2.66657 9.16769 2.76359 9.23326 2.87056 9.27802C2.97754 9.32277 3.09234 9.34582 3.2083 9.34582C3.32426 9.34582 3.43906 9.32277 3.54604 9.27802C3.65301 9.23326 3.75003 9.16769 3.83144 9.08512C3.91285 9.00254 3.97704 8.90461 4.02028 8.79702C4.06352 8.68942 4.08494 8.5743 4.0833 8.45835V7.87502C4.0833 7.05939 4.726 6.41669 5.54163 6.41669H22.4583C23.2739 6.41669 23.9166 7.05939 23.9166 7.87502V20.125C23.9166 20.9407 23.2739 21.5834 22.4583 21.5834H17.2083C17.0924 21.5817 16.9772 21.6031 16.8696 21.6464C16.762 21.6896 16.6641 21.7538 16.5815 21.8352C16.499 21.9166 16.4334 22.0136 16.3886 22.1206C16.3439 22.2276 16.3208 22.3424 16.3208 22.4584C16.3208 22.5743 16.3439 22.6891 16.3886 22.7961C16.4334 22.9031 16.499 23.0001 16.5815 23.0815C16.6641 23.1629 16.762 23.2271 16.8696 23.2703C16.9772 23.3136 17.0924 23.335 17.2083 23.3334H22.4583C24.2198 23.3334 25.6666 21.8866 25.6666 20.125V7.87502C25.6666 6.11349 24.2198 4.66669 22.4583 4.66669H5.54163ZM5.20325 11.0834C4.46863 11.0769 3.73284 11.1561 3.01234 11.3215C2.89904 11.3459 2.79172 11.3926 2.69663 11.4589C2.60153 11.5251 2.52054 11.6096 2.45836 11.7074C2.39619 11.8053 2.35406 11.9144 2.33443 12.0287C2.3148 12.1429 2.31806 12.2599 2.34402 12.3729C2.36998 12.4858 2.41812 12.5925 2.48564 12.6867C2.55317 12.7809 2.63873 12.8608 2.73737 12.9216C2.83601 12.9825 2.94576 13.0231 3.06024 13.0412C3.17472 13.0593 3.29166 13.0545 3.40426 13.027C3.99043 12.8925 4.58842 12.8281 5.1873 12.8334C7.13691 12.8512 9.07576 13.6085 10.5695 15.1211C12.0373 16.6074 12.789 18.5361 12.831 20.485C12.8442 21.0866 12.7898 21.6895 12.667 22.2795C12.6434 22.392 12.6423 22.5081 12.6637 22.621C12.685 22.734 12.7284 22.8416 12.7913 22.9378C12.8543 23.034 12.9356 23.1168 13.0305 23.1816C13.1255 23.2464 13.2323 23.2918 13.3448 23.3153C13.4573 23.3388 13.5734 23.3399 13.6863 23.3185C13.7993 23.2972 13.9069 23.2538 14.0031 23.1908C14.0993 23.1278 14.1821 23.0465 14.2469 22.9516C14.3116 22.8566 14.357 22.7498 14.3805 22.6372C14.5307 21.9159 14.597 21.1805 14.581 20.4474C14.5297 18.0716 13.6054 15.7049 11.8147 13.8918C9.99279 12.0467 7.59832 11.1052 5.20325 11.0834ZM5.03691 15.1667C4.30603 15.1577 3.57276 15.293 2.88359 15.5734C2.7736 15.6141 2.67291 15.6765 2.58751 15.7569C2.50211 15.8373 2.43374 15.9341 2.38647 16.0414C2.3392 16.1488 2.31399 16.2645 2.31234 16.3818C2.31069 16.4991 2.33263 16.6155 2.37687 16.7241C2.4211 16.8327 2.48671 16.9314 2.56982 17.0141C2.65292 17.0969 2.75181 17.1621 2.86062 17.2059C2.96943 17.2497 3.08593 17.2712 3.2032 17.269C3.32047 17.2669 3.43611 17.2412 3.54326 17.1935C4.01259 17.0026 4.51415 16.9105 5.01527 16.9167C5.97006 16.9286 6.91513 17.2944 7.64596 18.0252C8.43071 18.81 8.79523 19.8423 8.7511 20.8667C8.73261 21.2969 8.64179 21.724 8.47767 22.128C8.43435 22.2344 8.41242 22.3484 8.41314 22.4633C8.41385 22.5782 8.4372 22.6919 8.48185 22.7978C8.52649 22.9037 8.59156 22.9998 8.67333 23.0805C8.75511 23.1613 8.85199 23.2251 8.95845 23.2684C9.0649 23.3118 9.17885 23.3337 9.29378 23.333C9.40871 23.3322 9.52237 23.3089 9.62827 23.2642C9.73418 23.2196 9.83025 23.1545 9.911 23.0727C9.99176 22.991 10.0556 22.8941 10.0989 22.7876C10.3396 22.1952 10.473 21.5699 10.5 20.9419C10.5643 19.4475 10.0212 17.9259 8.88327 16.7879C7.82326 15.7279 6.42945 15.184 5.03691 15.1667ZM4.66663 19.25C4.2025 19.25 3.75738 19.4344 3.4292 19.7626C3.10101 20.0908 2.91663 20.5359 2.91663 21C2.91663 21.4641 3.10101 21.9093 3.4292 22.2375C3.75738 22.5656 4.2025 22.75 4.66663 22.75C5.13076 22.75 5.57588 22.5656 5.90407 22.2375C6.23226 21.9093 6.41663 21.4641 6.41663 21C6.41663 20.5359 6.23226 20.0908 5.90407 19.7626C5.57588 19.4344 5.13076 19.25 4.66663 19.25Z" fill="white"/>
</g>
</svg>
