<svg width="60" height="56" viewBox="0 0 60 56" fill="none" xmlns="http://www.w3.org/2000/svg">
<path d="M16.0001 0C9.76454 0 4.66675 5.0978 4.66675 11.3333C4.66675 14.1418 5.70767 16.7129 7.41414 18.6979C3.65898 19.0012 0.666748 22.1716 0.666748 26V48.6667C0.666748 52.693 3.97372 56 8.00008 56H40.0001C44.0264 56 47.3334 52.693 47.3334 48.6667V45.737L56.224 51.6641C56.5252 51.8648 56.8753 51.98 57.2368 51.9974C57.5984 52.0149 57.9579 51.9339 58.277 51.7631C58.5961 51.5923 58.863 51.3381 59.049 51.0276C59.235 50.7171 59.3333 50.362 59.3334 50V24.6667C59.3333 24.3047 59.235 23.9495 59.049 23.639C58.863 23.3286 58.5961 23.0744 58.277 22.9036C57.9579 22.7328 57.5984 22.6518 57.2368 22.6692C56.8753 22.6867 56.5252 22.8019 56.224 23.0026L47.3334 28.9297V26C47.3334 22.3203 44.5283 19.37 40.9792 18.8672C42.3779 17.1462 43.3334 15.0434 43.3334 12.6667C43.3334 7.16751 38.8326 2.66667 33.3334 2.66667C30.4196 2.66667 27.7932 3.93647 25.961 5.94271C24.0364 2.41052 20.287 0 16.0001 0ZM16.0001 4C20.0739 4 23.3334 7.25955 23.3334 11.3333C23.3334 15.4071 20.0739 18.6667 16.0001 18.6667C11.9263 18.6667 8.66675 15.4071 8.66675 11.3333C8.66675 7.25955 11.9263 4 16.0001 4ZM33.3334 6.66667C36.6708 6.66667 39.3334 9.32927 39.3334 12.6667C39.3334 16.0041 36.6708 18.6667 33.3334 18.6667C29.996 18.6667 27.3334 16.0041 27.3334 12.6667C27.3334 9.32927 29.996 6.66667 33.3334 6.66667ZM16.0001 9.33333C15.4696 9.33333 14.9609 9.54405 14.5859 9.91912C14.2108 10.2942 14.0001 10.8029 14.0001 11.3333C14.0001 11.8638 14.2108 12.3725 14.5859 12.7475C14.9609 13.1226 15.4696 13.3333 16.0001 13.3333C16.5305 13.3333 17.0392 13.1226 17.4143 12.7475C17.7894 12.3725 18.0001 11.8638 18.0001 11.3333C18.0001 10.8029 17.7894 10.2942 17.4143 9.91912C17.0392 9.54405 16.5305 9.33333 16.0001 9.33333ZM33.3334 10.6667C32.803 10.6667 32.2943 10.8774 31.9192 11.2525C31.5441 11.6275 31.3334 12.1362 31.3334 12.6667C31.3334 13.1971 31.5441 13.7058 31.9192 14.0809C32.2943 14.456 32.803 14.6667 33.3334 14.6667C33.8638 14.6667 34.3726 14.456 34.7476 14.0809C35.1227 13.7058 35.3334 13.1971 35.3334 12.6667C35.3334 12.1362 35.1227 11.6275 34.7476 11.2525C34.3726 10.8774 33.8638 10.6667 33.3334 10.6667ZM8.00008 22.6667H16.0001H33.3334H40.0001C41.8644 22.6667 43.3334 24.1357 43.3334 26V32.6667V42V48.6667C43.3334 50.531 41.8644 52 40.0001 52H8.00008C6.13578 52 4.66675 50.531 4.66675 48.6667V26C4.66675 24.1357 6.13578 22.6667 8.00008 22.6667ZM55.3334 28.4036V46.263L47.3334 40.9297V33.737L55.3334 28.4036Z" fill="#58217A"/>
</svg>
