<svg width="64" height="64" viewBox="0 0 64 64" fill="none" xmlns="http://www.w3.org/2000/svg">
<path d="M18.0001 4C11.7645 4 6.66675 9.0978 6.66675 15.3333C6.66675 18.1418 7.70767 20.7129 9.41414 22.6979C5.65898 23.0012 2.66675 26.1716 2.66675 30V52.6667C2.66675 56.693 5.97372 60 10.0001 60H42.0001C46.0264 60 49.3334 56.693 49.3334 52.6667V49.737L58.224 55.6641C58.5252 55.8648 58.8753 55.98 59.2368 55.9974C59.5984 56.0149 59.9579 55.9339 60.277 55.7631C60.5961 55.5923 60.863 55.3381 61.049 55.0276C61.235 54.7171 61.3333 54.362 61.3334 54V28.6667C61.3333 28.3047 61.235 27.9495 61.049 27.639C60.863 27.3286 60.5961 27.0744 60.277 26.9036C59.9579 26.7328 59.5984 26.6518 59.2368 26.6692C58.8753 26.6867 58.5252 26.8019 58.224 27.0026L49.3334 32.9297V30C49.3334 26.3203 46.5283 23.37 42.9792 22.8672C44.3779 21.1462 45.3334 19.0434 45.3334 16.6667C45.3334 11.1675 40.8326 6.66667 35.3334 6.66667C32.4196 6.66667 29.7932 7.93647 27.961 9.94271C26.0364 6.41052 22.287 4 18.0001 4ZM18.0001 8C22.0739 8 25.3334 11.2596 25.3334 15.3333C25.3334 19.4071 22.0739 22.6667 18.0001 22.6667C13.9263 22.6667 10.6667 19.4071 10.6667 15.3333C10.6667 11.2596 13.9263 8 18.0001 8ZM35.3334 10.6667C38.6708 10.6667 41.3334 13.3293 41.3334 16.6667C41.3334 20.0041 38.6708 22.6667 35.3334 22.6667C31.996 22.6667 29.3334 20.0041 29.3334 16.6667C29.3334 13.3293 31.996 10.6667 35.3334 10.6667ZM18.0001 13.3333C17.4696 13.3333 16.9609 13.544 16.5859 13.9191C16.2108 14.2942 16.0001 14.8029 16.0001 15.3333C16.0001 15.8638 16.2108 16.3725 16.5859 16.7475C16.9609 17.1226 17.4696 17.3333 18.0001 17.3333C18.5305 17.3333 19.0392 17.1226 19.4143 16.7475C19.7894 16.3725 20.0001 15.8638 20.0001 15.3333C20.0001 14.8029 19.7894 14.2942 19.4143 13.9191C19.0392 13.544 18.5305 13.3333 18.0001 13.3333ZM35.3334 14.6667C34.803 14.6667 34.2943 14.8774 33.9192 15.2525C33.5441 15.6275 33.3334 16.1362 33.3334 16.6667C33.3334 17.1971 33.5441 17.7058 33.9192 18.0809C34.2943 18.456 34.803 18.6667 35.3334 18.6667C35.8638 18.6667 36.3726 18.456 36.7476 18.0809C37.1227 17.7058 37.3334 17.1971 37.3334 16.6667C37.3334 16.1362 37.1227 15.6275 36.7476 15.2525C36.3726 14.8774 35.8638 14.6667 35.3334 14.6667ZM10.0001 26.6667H18.0001H35.3334H42.0001C43.8644 26.6667 45.3334 28.1357 45.3334 30V36.6667V46V52.6667C45.3334 54.531 43.8644 56 42.0001 56H10.0001C8.13578 56 6.66675 54.531 6.66675 52.6667V30C6.66675 28.1357 8.13578 26.6667 10.0001 26.6667ZM57.3334 32.4036V50.263L49.3334 44.9297V37.737L57.3334 32.4036Z" fill="#58217A"/>
</svg>
