<svg width="18" height="18" viewBox="0 0 18 18" fill="none" xmlns="http://www.w3.org/2000/svg">
<path d="M14.8072 2.61686C14.6587 2.62036 14.5175 2.6825 14.4146 2.78971L8.99984 8.2045L3.58505 2.78971C3.53262 2.73571 3.46988 2.69279 3.40056 2.66347C3.33124 2.63416 3.25675 2.61906 3.18148 2.61905C3.06954 2.61908 2.96015 2.65251 2.8673 2.71505C2.77446 2.7776 2.70239 2.86643 2.66032 2.97016C2.61824 3.0739 2.60807 3.18783 2.63111 3.29738C2.65414 3.40693 2.70934 3.50712 2.78964 3.58512L8.20443 8.99991L2.78964 14.4147C2.73565 14.4665 2.69256 14.5286 2.66286 14.5973C2.63317 14.666 2.61749 14.7399 2.61673 14.8148C2.61597 14.8896 2.63015 14.9639 2.65843 15.0331C2.68672 15.1024 2.72855 15.1654 2.78147 15.2183C2.83439 15.2712 2.89733 15.313 2.96662 15.3413C3.03591 15.3696 3.11014 15.3838 3.18497 15.383C3.25981 15.3823 3.33374 15.3666 3.40244 15.3369C3.47113 15.3072 3.53322 15.2641 3.58505 15.2101L8.99984 9.79532L14.4146 15.2101C14.4665 15.2641 14.5286 15.3072 14.5972 15.3369C14.6659 15.3666 14.7399 15.3823 14.8147 15.383C14.8895 15.3838 14.9638 15.3696 15.0331 15.3413C15.1024 15.313 15.1653 15.2712 15.2182 15.2183C15.2711 15.1654 15.313 15.1024 15.3413 15.0331C15.3695 14.9639 15.3837 14.8896 15.383 14.8148C15.3822 14.7399 15.3665 14.666 15.3368 14.5973C15.3071 14.5286 15.264 14.4665 15.21 14.4147L9.79525 8.99991L15.21 3.58512C15.2918 3.50661 15.348 3.40521 15.3712 3.29423C15.3944 3.18324 15.3835 3.06785 15.3399 2.96317C15.2964 2.85849 15.2222 2.76941 15.1271 2.70761C15.0321 2.64581 14.9206 2.61418 14.8072 2.61686Z" fill="#2D2B31"/>
</svg>
