<svg width="24" height="24" viewBox="0 0 24 24" fill="none" xmlns="http://www.w3.org/2000/svg">
<path fill-rule="evenodd" clip-rule="evenodd" d="M3 6.45301C3 6.03603 3.33522 5.698 3.74873 5.698H20.2513C20.6648 5.698 21 6.03603 21 6.45301C21 6.86999 20.6648 7.20801 20.2513 7.20801H3.74873C3.33522 7.20801 3 6.86999 3 6.45301Z" fill="#FC5C65"/>
<path fill-rule="evenodd" clip-rule="evenodd" d="M10.1664 3.51002C9.87865 3.51002 9.60271 3.62527 9.39925 3.83044C9.19579 4.0356 9.08149 4.31386 9.08149 4.60401V5.698H14.9185V4.60401C14.9185 4.31386 14.8042 4.0356 14.6007 3.83044C14.3973 3.62527 14.1213 3.51002 13.8336 3.51002H10.1664ZM16.416 5.698V4.60401C16.416 3.91338 16.1439 3.25104 15.6596 2.7627C15.1753 2.27435 14.5185 2 13.8336 2H10.1664C9.4815 2 8.82467 2.27435 8.34039 2.7627C7.85611 3.25104 7.58404 3.91338 7.58404 4.60401V5.698H5.58234C5.16883 5.698 4.83362 6.03603 4.83362 6.453V19.396C4.83362 20.0866 5.10568 20.749 5.58997 21.2373C6.07425 21.7257 6.73108 22 7.41596 22H16.584C17.2689 22 17.9257 21.7257 18.41 21.2373C18.8943 20.749 19.1664 20.0866 19.1664 19.396V6.453C19.1664 6.03603 18.8312 5.698 18.4177 5.698H16.416ZM6.33107 7.20801V19.396C6.33107 19.6861 6.44537 19.9644 6.64883 20.1696C6.85228 20.3747 7.12823 20.49 7.41596 20.49H16.584C16.8718 20.49 17.1477 20.3747 17.3512 20.1696C17.5546 19.9644 17.6689 19.6861 17.6689 19.396V7.20801H6.33107Z" fill="#FC5C65"/>
<path fill-rule="evenodd" clip-rule="evenodd" d="M10.1664 10.3205C10.5799 10.3205 10.9151 10.6585 10.9151 11.0755V16.6225C10.9151 17.0395 10.5799 17.3775 10.1664 17.3775C9.75287 17.3775 9.41766 17.0395 9.41766 16.6225V11.0755C9.41766 10.6585 9.75287 10.3205 10.1664 10.3205Z" fill="#FC5C65"/>
<path fill-rule="evenodd" clip-rule="evenodd" d="M13.8336 10.3205C14.2471 10.3205 14.5823 10.6585 14.5823 11.0755V16.6225C14.5823 17.0395 14.2471 17.3775 13.8336 17.3775C13.4201 17.3775 13.0849 17.0395 13.0849 16.6225V11.0755C13.0849 10.6585 13.4201 10.3205 13.8336 10.3205Z" fill="#FC5C65"/>
</svg>
