<svg width="28" height="28" viewBox="0 0 28 28" fill="none" xmlns="http://www.w3.org/2000/svg">
<g opacity="0.9">
<path d="M5.59991 3.73337C4.57972 3.73337 3.73325 4.57984 3.73325 5.60004V9.33337C3.7315 9.45705 3.75435 9.57984 3.80047 9.69461C3.84659 9.80938 3.91506 9.91384 4.0019 10.0019C4.08874 10.09 4.19222 10.1599 4.30633 10.2077C4.42043 10.2554 4.54289 10.28 4.66658 10.28C4.79027 10.28 4.91273 10.2554 5.02683 10.2077C5.14094 10.1599 5.24442 10.09 5.33126 10.0019C5.41811 9.91384 5.48658 9.80938 5.53269 9.69461C5.57881 9.57984 5.60166 9.45705 5.59991 9.33337V5.60004H9.33325C9.45693 5.60179 9.57972 5.57894 9.69449 5.53282C9.80926 5.4867 9.91372 5.41823 10.0018 5.33139C10.0899 5.24454 10.1598 5.14106 10.2076 5.02696C10.2553 4.91285 10.2799 4.79039 10.2799 4.6667C10.2799 4.54301 10.2553 4.42056 10.2076 4.30645C10.1598 4.19234 10.0899 4.08886 10.0018 4.00202C9.91372 3.91518 9.80926 3.84671 9.69449 3.80059C9.57972 3.75447 9.45693 3.73162 9.33325 3.73337H5.59991ZM18.6666 3.73337C18.5429 3.73162 18.4201 3.75447 18.3053 3.80059C18.1906 3.84671 18.0861 3.91518 17.998 4.00202C17.91 4.08886 17.84 4.19234 17.7923 4.30645C17.7445 4.42056 17.72 4.54301 17.72 4.6667C17.72 4.79039 17.7445 4.91285 17.7923 5.02696C17.84 5.14106 17.91 5.24454 17.998 5.33139C18.0861 5.41823 18.1906 5.4867 18.3053 5.53282C18.4201 5.57894 18.5429 5.60179 18.6666 5.60004H22.3999V9.33337C22.3982 9.45705 22.421 9.57984 22.4671 9.69461C22.5133 9.80938 22.5817 9.91384 22.6686 10.0019C22.7554 10.09 22.8589 10.1599 22.973 10.2077C23.0871 10.2554 23.2096 10.28 23.3332 10.28C23.4569 10.28 23.5794 10.2554 23.6935 10.2077C23.8076 10.1599 23.9111 10.09 23.9979 10.0019C24.0848 9.91384 24.1532 9.80938 24.1994 9.69461C24.2455 9.57984 24.2683 9.45705 24.2666 9.33337V5.60004C24.2666 4.57984 23.4201 3.73337 22.3999 3.73337H18.6666ZM4.652 17.7206C4.40478 17.7245 4.1692 17.8263 3.99695 18.0036C3.8247 18.181 3.72986 18.4195 3.73325 18.6667V22.4C3.73325 23.4202 4.57972 24.2667 5.59991 24.2667H9.33325C9.45693 24.2685 9.57972 24.2456 9.69449 24.1995C9.80926 24.1534 9.91372 24.0849 10.0018 23.9981C10.0899 23.9112 10.1598 23.8077 10.2076 23.6936C10.2553 23.5795 10.2799 23.4571 10.2799 23.3334C10.2799 23.2097 10.2553 23.0872 10.2076 22.9731C10.1598 22.859 10.0899 22.7555 10.0018 22.6687C9.91372 22.5818 9.80926 22.5134 9.69449 22.4673C9.57972 22.4211 9.45693 22.3983 9.33325 22.4H5.59991V18.6667C5.60162 18.5418 5.57826 18.4179 5.53121 18.3022C5.48415 18.1865 5.41436 18.0815 5.32597 17.9933C5.23758 17.905 5.13239 17.8354 5.01662 17.7886C4.90085 17.7418 4.77686 17.7187 4.652 17.7206ZM23.3187 17.7206C23.0714 17.7245 22.8359 17.8263 22.6636 18.0036C22.4914 18.181 22.3965 18.4195 22.3999 18.6667V22.4H18.6666C18.5429 22.3983 18.4201 22.4211 18.3053 22.4673C18.1906 22.5134 18.0861 22.5818 17.998 22.6687C17.91 22.7555 17.84 22.859 17.7923 22.9731C17.7445 23.0872 17.72 23.2097 17.72 23.3334C17.72 23.4571 17.7445 23.5795 17.7923 23.6936C17.84 23.8077 17.91 23.9112 17.998 23.9981C18.0861 24.0849 18.1906 24.1534 18.3053 24.1995C18.4201 24.2456 18.5429 24.2685 18.6666 24.2667H22.3999C23.4201 24.2667 24.2666 23.4202 24.2666 22.4V18.6667C24.2683 18.5418 24.2449 18.4179 24.1979 18.3022C24.1508 18.1865 24.081 18.0815 23.9926 17.9933C23.9042 17.905 23.7991 17.8354 23.6833 17.7886C23.5675 17.7418 23.4435 17.7187 23.3187 17.7206Z" fill="white"/>
</g>
</svg>
