<svg width="24" height="24" viewBox="0 0 24 24" fill="none" xmlns="http://www.w3.org/2000/svg">
<path d="M4.79979 3.19979C3.92534 3.19979 3.19979 3.92534 3.19979 4.79979V7.99979C3.19829 8.1058 3.21787 8.21105 3.2574 8.30942C3.29693 8.4078 3.35562 8.49733 3.43006 8.57283C3.50449 8.64832 3.59319 8.70827 3.691 8.74919C3.7888 8.79011 3.89377 8.81118 3.99979 8.81118C4.10581 8.81118 4.21077 8.79011 4.30858 8.74919C4.40638 8.70827 4.49508 8.64832 4.56952 8.57283C4.64395 8.49733 4.70264 8.4078 4.74217 8.30942C4.7817 8.21105 4.80129 8.1058 4.79979 7.99979V4.79979H7.99979C8.1058 4.80129 8.21105 4.7817 8.30942 4.74217C8.4078 4.70264 8.49733 4.64395 8.57283 4.56952C8.64832 4.49508 8.70827 4.40638 8.74919 4.30858C8.79011 4.21077 8.81118 4.10581 8.81118 3.99979C8.81118 3.89377 8.79011 3.7888 8.74919 3.691C8.70827 3.59319 8.64832 3.50449 8.57283 3.43006C8.49733 3.35562 8.4078 3.29693 8.30942 3.2574C8.21105 3.21787 8.1058 3.19829 7.99979 3.19979H4.79979ZM15.9998 3.19979C15.8938 3.19829 15.7885 3.21787 15.6902 3.2574C15.5918 3.29693 15.5022 3.35562 15.4267 3.43006C15.3512 3.50449 15.2913 3.59319 15.2504 3.691C15.2095 3.7888 15.1884 3.89377 15.1884 3.99979C15.1884 4.10581 15.2095 4.21077 15.2504 4.30858C15.2913 4.40638 15.3512 4.49508 15.4267 4.56952C15.5022 4.64395 15.5918 4.70264 15.6902 4.74217C15.7885 4.7817 15.8938 4.80129 15.9998 4.79979H19.1998V7.99979C19.1983 8.1058 19.2179 8.21105 19.2574 8.30942C19.2969 8.4078 19.3556 8.49733 19.4301 8.57283C19.5045 8.64832 19.5932 8.70827 19.691 8.74919C19.7888 8.79011 19.8938 8.81118 19.9998 8.81118C20.1058 8.81118 20.2108 8.79011 20.3086 8.74919C20.4064 8.70827 20.4951 8.64832 20.5695 8.57283C20.6439 8.49733 20.7026 8.4078 20.7422 8.30942C20.7817 8.21105 20.8013 8.1058 20.7998 7.99979V4.79979C20.7998 3.92534 20.0742 3.19979 19.1998 3.19979H15.9998ZM3.98729 15.1888C3.77539 15.1922 3.57346 15.2794 3.42582 15.4314C3.27818 15.5835 3.19689 15.7879 3.19979 15.9998V19.1998C3.19979 20.0742 3.92534 20.7998 4.79979 20.7998H7.99979C8.1058 20.8013 8.21105 20.7817 8.30942 20.7422C8.4078 20.7026 8.49733 20.6439 8.57283 20.5695C8.64832 20.4951 8.70827 20.4064 8.74919 20.3086C8.79011 20.2108 8.81118 20.1058 8.81118 19.9998C8.81118 19.8938 8.79011 19.7888 8.74919 19.691C8.70827 19.5932 8.64832 19.5045 8.57283 19.4301C8.49733 19.3556 8.4078 19.2969 8.30942 19.2574C8.21105 19.2179 8.1058 19.1983 7.99979 19.1998H4.79979V15.9998C4.80125 15.8928 4.78123 15.7865 4.74089 15.6874C4.70056 15.5882 4.64074 15.4982 4.56498 15.4225C4.48922 15.3469 4.39905 15.2873 4.29982 15.2471C4.20059 15.207 4.09432 15.1872 3.98729 15.1888ZM19.9873 15.1888C19.7754 15.1922 19.5735 15.2794 19.4258 15.4314C19.2782 15.5835 19.1969 15.7879 19.1998 15.9998V19.1998H15.9998C15.8938 19.1983 15.7885 19.2179 15.6902 19.2574C15.5918 19.2969 15.5022 19.3556 15.4267 19.4301C15.3512 19.5045 15.2913 19.5932 15.2504 19.691C15.2095 19.7888 15.1884 19.8938 15.1884 19.9998C15.1884 20.1058 15.2095 20.2108 15.2504 20.3086C15.2913 20.4064 15.3512 20.4951 15.4267 20.5695C15.5022 20.6439 15.5918 20.7026 15.6902 20.7422C15.7885 20.7817 15.8938 20.8013 15.9998 20.7998H19.1998C20.0742 20.7998 20.7998 20.0742 20.7998 19.1998V15.9998C20.8013 15.8928 20.7812 15.7865 20.7409 15.6874C20.7006 15.5882 20.6407 15.4982 20.565 15.4225C20.4892 15.3469 20.399 15.2873 20.2998 15.2471C20.2006 15.207 20.0943 15.1872 19.9873 15.1888Z" fill="#EAEAE4"/>
</svg>
