<svg width="28" height="28" viewBox="0 0 28 28" fill="none" xmlns="http://www.w3.org/2000/svg">
<path d="M8.6 4C4.96547 4 2 6.82428 2 10.2858C2 12.6264 3.85259 14.8303 6.11094 17.0905C8.36929 19.3507 11.149 21.6398 13.3637 23.749C13.5325 23.9097 13.7613 24 14 24C14.2387 24 14.4675 23.9097 14.6363 23.749C16.851 21.6398 19.6307 19.3507 21.8891 17.0905C24.1474 14.8303 26 12.6264 26 10.2858C26 6.82428 23.0345 4 19.4 4C17.3141 4 15.4981 5.06657 14 6.87837C12.5019 5.06657 10.6859 4 8.6 4Z" fill="#7F58EC"/>
</svg>
