<svg width="28" height="28" viewBox="0 0 28 28" fill="none" xmlns="http://www.w3.org/2000/svg">
<path d="M8.6 4C4.96547 4 2 6.82428 2 10.2858C2 12.6264 3.85259 14.8303 6.11094 17.0905C8.36929 19.3507 11.149 21.6398 13.3637 23.749C13.5325 23.9097 13.7613 24 14 24C14.2387 24 14.4675 23.9097 14.6363 23.749C16.851 21.6398 19.6307 19.3507 21.8891 17.0905C24.1474 14.8303 26 12.6264 26 10.2858C26 6.82428 23.0345 4 19.4 4C17.3141 4 15.4981 5.06657 14 6.87837C12.5019 5.06657 10.6859 4 8.6 4ZM8.6 5.7143C10.3571 5.7143 11.8198 6.60482 13.2395 8.74334C13.3206 8.8655 13.4329 8.96611 13.5659 9.03583C13.6989 9.10555 13.8482 9.14211 14 9.14211C14.1518 9.14211 14.3011 9.10555 14.4341 9.03583C14.5671 8.96611 14.6794 8.8655 14.7605 8.74334C16.1802 6.60482 17.6429 5.7143 19.4 5.7143C22.0619 5.7143 24.2 7.75064 24.2 10.2858C24.2 11.6594 22.7526 13.7413 20.5859 15.9097C18.6102 17.8871 16.1542 19.953 14 21.9533C11.8458 19.953 9.38985 17.8871 7.41406 15.9097C5.24741 13.7413 3.8 11.6594 3.8 10.2858C3.8 7.75064 5.93813 5.7143 8.6 5.7143Z" fill="white"/>
</svg>
