<svg width="28" height="28" viewBox="0 0 28 28" fill="none" xmlns="http://www.w3.org/2000/svg">
<path d="M13.9702 3.00041C13.7747 3.00657 13.5865 3.07027 13.4331 3.1822L4.7474 9.49849C3.64501 10.3004 3 11.5258 3 12.8213V23.5898C3 24.359 3.69447 25 4.52778 25H10.6389C11.4722 25 12.1667 24.359 12.1667 23.5898V17.9489C12.1667 17.7824 12.2919 17.6668 12.4722 17.6668H15.5278C15.7081 17.6668 15.8333 17.7824 15.8333 17.9489V23.5898C15.8333 24.359 16.5278 25 17.3611 25H23.4722C24.3055 25 25 24.359 25 23.5898V12.8213C25 11.5258 24.355 10.3004 23.2526 9.49849L14.5669 3.1822C14.3974 3.05859 14.1861 2.99421 13.9702 3.00041ZM14 4.92405L22.1187 10.8283C22.7812 11.3102 23.1667 12.0433 23.1667 12.8213V23.3077H17.6667V17.9489C17.6667 16.8686 16.698 15.9745 15.5278 15.9745H12.4722C11.302 15.9745 10.3333 16.8686 10.3333 17.9489V23.3077H4.83333V12.8213C4.83333 12.0433 5.21879 11.3102 5.88129 10.8283L14 4.92405Z" fill="white"/>
</svg>
