<svg width="16" height="20" viewBox="0 0 16 20" fill="none" xmlns="http://www.w3.org/2000/svg">
<path d="M13.625 7.00039H12.5V4.81133C12.5 2.34102 10.5312 0.287891 8.06094 0.250391C5.55781 0.217578 3.5 2.25664 3.5 4.75039V7.00039H2.375C1.34375 7.00039 0.5 7.84414 0.5 8.87539V17.8754C0.5 18.9066 1.34375 19.7504 2.375 19.7504H13.625C14.6562 19.7504 15.5 18.9066 15.5 17.8754V8.87539C15.5 7.84414 14.6562 7.00039 13.625 7.00039ZM8.65625 12.8504V16.0754C8.65625 16.427 8.38438 16.7316 8.03281 16.7504C7.65781 16.7691 7.34375 16.4691 7.34375 16.0941V12.8504C6.80469 12.5879 6.44844 12.016 6.50469 11.3645C6.57031 10.6379 7.16562 10.0566 7.89219 10.0051C8.76875 9.94414 9.5 10.6379 9.5 11.5004C9.5 12.0957 9.15781 12.6066 8.65625 12.8504ZM11.1875 7.00039H4.8125V4.75039C4.8125 3.90195 5.14531 3.10508 5.75 2.50039C6.35469 1.8957 7.15156 1.56289 8 1.56289C8.84844 1.56289 9.64531 1.8957 10.25 2.50039C10.8547 3.10508 11.1875 3.90195 11.1875 4.75039V7.00039Z" fill="#A2A299"/>
</svg>
