<svg width="24" height="24" viewBox="0 0 24 24" fill="none" xmlns="http://www.w3.org/2000/svg">
<path d="M17.625 9.00039H16.5V6.81133C16.5 4.34102 14.5312 2.28789 12.0609 2.25039C9.55781 2.21758 7.5 4.25664 7.5 6.75039V9.00039H6.375C5.34375 9.00039 4.5 9.84414 4.5 10.8754V19.8754C4.5 20.9066 5.34375 21.7504 6.375 21.7504H17.625C18.6562 21.7504 19.5 20.9066 19.5 19.8754V10.8754C19.5 9.84414 18.6562 9.00039 17.625 9.00039ZM12.6562 14.8504V18.0754C12.6562 18.427 12.3844 18.7316 12.0328 18.7504C11.6578 18.7691 11.3438 18.4691 11.3438 18.0941V14.8504C10.8047 14.5879 10.4484 14.016 10.5047 13.3645C10.5703 12.6379 11.1656 12.0566 11.8922 12.0051C12.7688 11.9441 13.5 12.6379 13.5 13.5004C13.5 14.0957 13.1578 14.6066 12.6562 14.8504ZM15.1875 9.00039H8.8125V6.75039C8.8125 5.90195 9.14531 5.10508 9.75 4.50039C10.3547 3.8957 11.1516 3.56289 12 3.56289C12.8484 3.56289 13.6453 3.8957 14.25 4.50039C14.8547 5.10508 15.1875 5.90195 15.1875 6.75039V9.00039Z" fill="#A2A299"/>
</svg>
