<svg width="64" height="64" viewBox="0 0 64 64" fill="none" xmlns="http://www.w3.org/2000/svg">
<path d="M32.0001 5.33337C26.1326 5.33337 21.3334 10.1326 21.3334 16V21.3334H16.6667C13.3767 21.3334 10.6667 24.0434 10.6667 27.3334V52.6667C10.6667 55.9567 13.3767 58.6667 16.6667 58.6667H47.3334C50.6234 58.6667 53.3334 55.9567 53.3334 52.6667V27.3334C53.3334 24.0434 50.6234 21.3334 47.3334 21.3334H42.6667V16C42.6667 10.1326 37.8675 5.33337 32.0001 5.33337ZM32.0001 9.33337C35.706 9.33337 38.6667 12.2942 38.6667 16V21.3334H25.3334V16C25.3334 12.2942 28.2942 9.33337 32.0001 9.33337ZM16.6667 25.3334H47.3334C48.4621 25.3334 49.3334 26.2047 49.3334 27.3334V52.6667C49.3334 53.7954 48.4621 54.6667 47.3334 54.6667H16.6667C15.5381 54.6667 14.6667 53.7954 14.6667 52.6667V27.3334C14.6667 26.2047 15.5381 25.3334 16.6667 25.3334ZM32.0001 36C30.9392 36 29.9218 36.4215 29.1717 37.1716C28.4215 37.9218 28.0001 38.9392 28.0001 40C28.0001 41.0609 28.4215 42.0783 29.1717 42.8285C29.9218 43.5786 30.9392 44 32.0001 44C33.0609 44 34.0784 43.5786 34.8285 42.8285C35.5787 42.0783 36.0001 41.0609 36.0001 40C36.0001 38.9392 35.5787 37.9218 34.8285 37.1716C34.0784 36.4215 33.0609 36 32.0001 36Z" fill="#58217A"/>
</svg>
