<svg width="106" height="122" viewBox="74 74 106 122" fill="none" xmlns="http://www.w3.org/2000/svg">
<path d="M176.18 132.226L79.7961 76.76C78.2218 75.8541 77.4347 75.4011 76.789 75.4696C76.2257 75.5294 75.7142 75.8252 75.3815 76.2836C75 76.8091 75 77.7172 75 79.5336V90.3121C75 90.9767 75 91.309 75.0958 91.6072C75.1805 91.8711 75.3192 92.1145 75.503 92.322C75.7107 92.5564 75.9965 92.7259 76.5682 93.0648L76.5682 93.0648L142.656 132.241C144.188 133.149 144.954 133.603 145.213 134.192C145.438 134.706 145.438 135.291 145.211 135.804C144.951 136.392 144.184 136.844 142.65 137.75L96.2604 165.125C94.6789 166.058 93.8882 166.525 93.2383 166.461C92.6716 166.405 92.1555 166.11 91.8194 165.651C91.4341 165.123 91.4341 164.205 91.4341 162.369V145.607C91.4341 143.755 91.4341 142.828 91.8225 142.3C92.1612 141.839 92.681 141.545 93.2504 141.493C93.9036 141.432 94.6972 141.91 96.2843 142.865L98.0768 143.944C98.6505 144.29 98.9374 144.462 99.2445 144.534C99.5162 144.597 99.7982 144.603 100.072 144.551C100.382 144.492 100.676 144.331 101.263 144.01L112.741 137.729C114.372 136.836 115.188 136.39 115.465 135.794C115.707 135.275 115.714 134.677 115.485 134.152C115.222 133.549 114.417 133.084 112.808 132.152L79.8029 113.05C78.227 112.138 77.4391 111.682 76.7924 111.749C76.2284 111.808 75.7158 112.104 75.3823 112.563C75 113.088 75 113.999 75 115.82V190.466C75 192.283 75 193.191 75.3815 193.716C75.7142 194.175 76.2257 194.471 76.789 194.53C77.4347 194.599 78.2218 194.146 79.7961 193.24L176.18 137.774C177.761 136.864 178.552 136.409 178.817 135.815C179.048 135.296 179.048 134.704 178.817 134.185C178.552 133.591 177.761 133.136 176.18 132.226Z" fill="#7F58EC"/>
</svg>
