<svg width="63" height="72" viewBox="0 0 63 72" fill="none" xmlns="http://www.w3.org/2000/svg">
<path d="M59.6612 33.2243L4.79228 1.74906C3.21896 0.846532 2.43229 0.395269 1.78707 0.464357C1.22424 0.524622 0.713313 0.820557 0.380985 1.27877C0 1.80407 0 2.71098 0 4.52478V8.17398C0 8.83959 0 9.1724 0.0960213 9.471C0.180989 9.73523 0.320023 9.97888 0.504277 10.1864C0.712501 10.421 0.999018 10.5903 1.57205 10.9289L1.57206 10.9289L39.3272 33.2388L39.3272 33.2388C40.8649 34.1474 41.6338 34.6018 41.8929 35.1911C42.119 35.7053 42.1184 36.2909 41.8913 36.8047C41.631 37.3935 40.8612 37.8463 39.3217 38.7519L14.8225 53.1633L14.8224 53.1633C13.2419 54.093 12.4516 54.5579 11.8023 54.4934C11.236 54.4371 10.7205 54.1423 10.3848 53.6827C10 53.1557 10 52.2388 10 50.4051V43.4037C10 42.6483 10 42.2705 10.0674 42.0175C10.3558 40.9353 11.4764 40.3008 12.5528 40.6103C12.8044 40.6827 13.1283 40.877 13.7761 41.2656L13.7762 41.2657C14.011 41.4066 14.1284 41.4771 14.2461 41.5285C14.7308 41.7404 15.2797 41.7517 15.7726 41.5599C15.8923 41.5133 16.0125 41.4477 16.2529 41.3166L16.2529 41.3166L20.9931 38.731C22.63 37.8382 23.4484 37.3918 23.7261 36.7953C23.9683 36.2752 23.9754 35.6762 23.7458 35.1505C23.4824 34.5475 22.6749 34.0817 21.0599 33.15L4.79911 23.7687C3.22414 22.8601 2.43666 22.4058 1.7905 22.4738C1.22689 22.5332 0.714923 22.8289 0.381853 23.2874C0 23.8131 0 24.7222 0 26.5405V67.4752C0 69.289 0 70.1959 0.380985 70.7212C0.713313 71.1794 1.22424 71.4754 1.78707 71.5356C2.43229 71.6047 3.21896 71.1535 4.79228 70.2509L59.6612 38.7757C61.2478 37.8656 62.0411 37.4106 62.3068 36.8155C62.5385 36.2965 62.5385 35.7035 62.3068 35.1845C62.0411 34.5894 61.2478 34.1344 59.6612 33.2243Z" fill="#58217A"/>
</svg>
