<svg width="24" height="24" viewBox="0 0 24 24" fill="none" xmlns="http://www.w3.org/2000/svg">
<path d="M5.59981 4.7998C5.38763 4.7998 5.18415 4.88409 5.03412 5.03412C4.88409 5.18415 4.79981 5.38763 4.79981 5.5998C4.7998 5.60085 4.7998 5.60189 4.79981 5.60293V11.9998V18.3967C4.7998 18.3977 4.7998 18.3988 4.79981 18.3998C4.79981 18.612 4.88409 18.8155 5.03412 18.9655C5.18415 19.1155 5.38763 19.1998 5.59981 19.1998C5.77023 19.1995 5.9361 19.1447 6.07324 19.0436H6.07481C6.0822 19.038 6.08949 19.0322 6.09668 19.0264L14.8326 12.6732C14.9453 12.6007 15.038 12.5011 15.1022 12.3834C15.1663 12.2657 15.1999 12.1338 15.1998 11.9998C15.1997 11.8685 15.1673 11.7393 15.1055 11.6234C15.0436 11.5076 14.9542 11.4088 14.8451 11.3357L6.07481 4.95605C5.93724 4.85456 5.77077 4.7998 5.59981 4.7998ZM17.9998 4.7998C17.3374 4.7998 16.7998 5.3374 16.7998 5.9998V17.9998C16.7998 18.6622 17.3374 19.1998 17.9998 19.1998C18.6622 19.1998 19.1998 18.6622 19.1998 17.9998V5.9998C19.1998 5.3374 18.6622 4.7998 17.9998 4.7998Z" fill="#EAEAE4"/>
</svg>
