<svg width="28" height="28" viewBox="0 0 28 28" fill="none" xmlns="http://www.w3.org/2000/svg">
<g opacity="0.9">
<path d="M10.1944 3.48747C9.96256 3.49109 9.74162 3.5866 9.58012 3.75301C9.41862 3.91943 9.32978 4.14314 9.3331 4.37501V7.875C9.3331 8.69064 8.6904 9.33334 7.87477 9.33334H4.37477C4.25882 9.3317 4.1437 9.35312 4.0361 9.39636C3.92851 9.43959 3.83058 9.50378 3.748 9.5852C3.66543 9.66661 3.59986 9.76362 3.55511 9.8706C3.51035 9.97757 3.4873 10.0924 3.4873 10.2083C3.4873 10.3243 3.51035 10.4391 3.55511 10.5461C3.59986 10.6531 3.66543 10.7501 3.748 10.8315C3.83058 10.9129 3.92851 10.9771 4.0361 11.0203C4.1437 11.0636 4.25882 11.085 4.37477 11.0833H7.87477C9.6363 11.0833 11.0831 9.63654 11.0831 7.875V4.37501C11.0848 4.25789 11.0629 4.14163 11.0189 4.03312C10.9748 3.9246 10.9094 3.82604 10.8265 3.74328C10.7436 3.66051 10.645 3.59522 10.5364 3.55128C10.4278 3.50734 10.3115 3.48564 10.1944 3.48747ZM17.7778 3.48747C17.5459 3.49109 17.325 3.5866 17.1635 3.75301C17.002 3.91943 16.9131 4.14314 16.9164 4.37501V7.875C16.9164 9.63654 18.3632 11.0833 20.1248 11.0833H23.6248C23.7407 11.085 23.8558 11.0636 23.9634 11.0203C24.071 10.9771 24.169 10.9129 24.2515 10.8315C24.3341 10.7501 24.3997 10.6531 24.4444 10.5461C24.4892 10.4391 24.5122 10.3243 24.5122 10.2083C24.5122 10.0924 24.4892 9.97757 24.4444 9.8706C24.3997 9.76362 24.3341 9.66661 24.2515 9.5852C24.169 9.50378 24.071 9.43959 23.9634 9.39636C23.8558 9.35312 23.7407 9.3317 23.6248 9.33334H20.1248C19.3091 9.33334 18.6664 8.69064 18.6664 7.875V4.37501C18.6681 4.25789 18.6463 4.14163 18.6022 4.03312C18.5581 3.9246 18.4927 3.82604 18.4098 3.74328C18.3269 3.66051 18.2283 3.59522 18.1197 3.55128C18.0112 3.50734 17.8949 3.48564 17.7778 3.48747ZM4.37477 16.9167C4.25882 16.915 4.1437 16.9365 4.0361 16.9797C3.92851 17.0229 3.83058 17.0871 3.748 17.1685C3.66543 17.2499 3.59986 17.347 3.55511 17.4539C3.51035 17.5609 3.4873 17.6757 3.4873 17.7917C3.4873 17.9076 3.51035 18.0224 3.55511 18.1294C3.59986 18.2364 3.66543 18.3334 3.748 18.4148C3.83058 18.4962 3.92851 18.5604 4.0361 18.6037C4.1437 18.6469 4.25882 18.6683 4.37477 18.6667H7.87477C8.6904 18.6667 9.3331 19.3094 9.3331 20.125V23.625C9.33146 23.7409 9.35288 23.8561 9.39612 23.9637C9.43936 24.0713 9.50355 24.1692 9.58496 24.2518C9.66638 24.3343 9.76339 24.3999 9.87036 24.4447C9.97734 24.4894 10.0921 24.5125 10.2081 24.5125C10.3241 24.5125 10.4389 24.4894 10.5458 24.4447C10.6528 24.3999 10.7498 24.3343 10.8312 24.2518C10.9127 24.1692 10.9768 24.0713 11.0201 23.9637C11.0633 23.8561 11.0847 23.7409 11.0831 23.625V20.125C11.0831 18.3635 9.6363 16.9167 7.87477 16.9167H4.37477ZM20.1248 16.9167C18.3632 16.9167 16.9164 18.3635 16.9164 20.125V23.625C16.9148 23.7409 16.9362 23.8561 16.9795 23.9637C17.0227 24.0713 17.0869 24.1692 17.1683 24.2518C17.2497 24.3343 17.3467 24.3999 17.4537 24.4447C17.5607 24.4894 17.6755 24.5125 17.7914 24.5125C17.9074 24.5125 18.0222 24.4894 18.1292 24.4447C18.2361 24.3999 18.3332 24.3343 18.4146 24.2518C18.496 24.1692 18.5602 24.0713 18.6034 23.9637C18.6467 23.8561 18.6681 23.7409 18.6664 23.625V20.125C18.6664 19.3094 19.3091 18.6667 20.1248 18.6667H23.6248C23.7407 18.6683 23.8558 18.6469 23.9634 18.6037C24.071 18.5604 24.169 18.4962 24.2515 18.4148C24.3341 18.3334 24.3997 18.2364 24.4444 18.1294C24.4892 18.0224 24.5122 17.9076 24.5122 17.7917C24.5122 17.6757 24.4892 17.5609 24.4444 17.4539C24.3997 17.347 24.3341 17.2499 24.2515 17.1685C24.169 17.0871 24.071 17.0229 23.9634 16.9797C23.8558 16.9365 23.7407 16.915 23.6248 16.9167H20.1248Z" fill="white"/>
</g>
</svg>
