<svg width="28" height="28" viewBox="0 0 28 28" fill="none" xmlns="http://www.w3.org/2000/svg">
<path d="M15.8427 22.0387C15.5091 22.0387 15.2193 22.2684 15.1482 22.5965C15.0935 22.8426 15.0005 23.0449 14.8747 23.1926C14.8036 23.2746 14.5958 23.5152 13.9943 23.5152C13.3927 23.5152 13.1849 23.2691 13.1138 23.1926C12.988 23.0449 12.895 22.8426 12.8404 22.5965C12.7693 22.2684 12.4794 22.0387 12.1458 22.0387C11.6864 22.0387 11.3529 22.4652 11.4513 22.9082C11.7247 24.1277 12.5997 24.9371 13.9943 24.9371C15.3888 24.9371 16.2638 24.1332 16.5372 22.9082C16.6357 22.4652 16.2966 22.0387 15.8427 22.0387ZM22.531 19.2605C21.6888 18.1504 20.0318 17.4996 20.0318 12.5285C20.0318 7.42617 17.7786 5.37539 15.6786 4.8832C15.4818 4.83398 15.3396 4.76836 15.3396 4.56055V4.40195C15.3396 3.67461 14.7489 3.05664 14.0271 3.05664H13.9943C13.2724 3.05664 12.6818 3.67461 12.6818 4.40195V4.56055C12.6818 4.76289 12.5396 4.83398 12.3427 4.8832C10.2372 5.38086 7.98957 7.42617 7.98957 12.5285C7.98957 17.4996 6.33254 18.1449 5.49035 19.2605C4.94895 19.977 5.46301 20.9996 6.35988 20.9996H21.6779C22.5583 20.9996 23.0669 19.9715 22.531 19.2605ZM20.3982 19.5777H7.64504C7.43723 19.5777 7.32785 19.3371 7.46457 19.1785C7.84738 18.741 8.26848 18.1668 8.61301 17.352C9.13801 16.116 9.39504 14.5355 9.39504 12.5285C9.39504 10.4887 9.77785 8.8918 10.538 7.78164C11.2161 6.78633 12.0638 6.40898 12.6544 6.27227C13.1138 6.16289 13.4419 5.95508 13.6716 5.69805C13.8466 5.50117 14.1474 5.49023 14.3224 5.68711C14.6013 5.99883 14.9786 6.18477 15.3505 6.27227C15.9411 6.40898 16.7888 6.78633 17.4669 7.78164C18.2271 8.8918 18.6099 10.4887 18.6099 12.5285C18.6099 14.5355 18.8669 16.116 19.3919 17.352C19.7474 18.1832 20.1794 18.7684 20.5677 19.2059C20.688 19.3535 20.5896 19.5777 20.3982 19.5777Z" fill="#C6C6C6"/>
</svg>
