<svg width="48" height="48" viewBox="0 0 48 48" fill="none" xmlns="http://www.w3.org/2000/svg">
<path d="M12.8001 6.3999C11.0321 6.3999 9.6001 7.8319 9.6001 9.5999V38.3999C9.6001 40.1679 11.0321 41.5999 12.8001 41.5999H16.0001C17.7681 41.5999 19.2001 40.1679 19.2001 38.3999V9.5999C19.2001 7.8319 17.7681 6.3999 16.0001 6.3999H12.8001ZM32.0001 6.3999C30.2321 6.3999 28.8001 7.8319 28.8001 9.5999V38.3999C28.8001 40.1679 30.2321 41.5999 32.0001 41.5999H35.2001C36.9681 41.5999 38.4001 40.1679 38.4001 38.3999V9.5999C38.4001 7.8319 36.9681 6.3999 35.2001 6.3999H32.0001Z" fill="#EAEAE4"/>
</svg>
