<svg width="56" height="56" viewBox="0 0 56 56" fill="none" xmlns="http://www.w3.org/2000/svg">
<g opacity="0.9">
<path d="M14.9335 7.46667C12.8709 7.46667 11.2002 9.13734 11.2002 11.2V44.8C11.2002 46.8627 12.8709 48.5333 14.9335 48.5333H18.6669C20.7295 48.5333 22.4002 46.8627 22.4002 44.8V11.2C22.4002 9.13734 20.7295 7.46667 18.6669 7.46667H14.9335ZM37.3335 7.46667C35.2709 7.46667 33.6002 9.13734 33.6002 11.2V44.8C33.6002 46.8627 35.2709 48.5333 37.3335 48.5333H41.0669C43.1295 48.5333 44.8002 46.8627 44.8002 44.8V11.2C44.8002 9.13734 43.1295 7.46667 41.0669 7.46667H37.3335Z" fill="white"/>
</g>
</svg>
