<svg width="56" height="56" viewBox="0 0 56 56" fill="none" xmlns="http://www.w3.org/2000/svg">
<g opacity="0.9">
<path d="M50.3999 28C50.3999 27.2981 49.9967 26.7101 49.4237 26.3909L49.4349 26.3722L12.2882 5.94718L12.2509 5.96584C11.9485 5.75304 11.5994 5.59998 11.1999 5.59998C10.1695 5.59998 9.33325 6.43624 9.33325 7.46664C9.33325 7.46851 9.33512 7.47038 9.33512 7.47411H9.33325V28V48.5258H9.33512C9.33512 48.5296 9.33325 48.5314 9.33325 48.5333C9.33325 49.5637 10.1695 50.4 11.1999 50.4C11.5994 50.4 11.9485 50.2469 12.2527 50.0341L12.2882 50.0528L49.4349 29.6277L49.4237 29.609C49.9967 29.2898 50.3999 28.7018 50.3999 28Z" fill="white"/>
</g>
</svg>
