<svg width="36" height="36" viewBox="0 0 36 36" fill="none" xmlns="http://www.w3.org/2000/svg">
<path d="M18 3C9.729 3 3 9.729 3 18C3 26.271 9.729 33 18 33C26.271 33 33 26.271 33 18C33 9.729 26.271 3 18 3ZM24.375 19.125H19.125V24.375C19.125 24.9968 18.6217 25.5 18 25.5C17.3783 25.5 16.875 24.9968 16.875 24.375V19.125H11.625C11.0033 19.125 10.5 18.6218 10.5 18C10.5 17.3783 11.0033 16.875 11.625 16.875H16.875V11.625C16.875 11.0033 17.3783 10.5 18 10.5C18.6217 10.5 19.125 11.0033 19.125 11.625V16.875H24.375C24.9967 16.875 25.5 17.3783 25.5 18C25.5 18.6218 24.9967 19.125 24.375 19.125Z" fill="#2F8C2D"/>
</svg>
