<svg width="24" height="24" viewBox="0 0 24 24" fill="none" xmlns="http://www.w3.org/2000/svg">
<path d="M5.9998 4.7998C5.3374 4.7998 4.7998 5.3374 4.7998 5.9998V17.9998C4.7998 18.6622 5.3374 19.1998 5.9998 19.1998C6.6622 19.1998 7.1998 18.6622 7.1998 17.9998V5.9998C7.1998 5.3374 6.6622 4.7998 5.9998 4.7998ZM18.3998 4.7998C18.2288 4.7998 18.0624 4.85456 17.9248 4.95605C17.9174 4.96166 17.9101 4.96739 17.9029 4.97324L9.16856 11.3248C9.16804 11.3253 9.16751 11.3258 9.16699 11.3264L9.15449 11.3357C9.04542 11.4088 8.95601 11.5076 8.89415 11.6234C8.8323 11.7393 8.79989 11.8685 8.79981 11.9998C8.79989 12.1321 8.83277 12.2622 8.89548 12.3787C8.9582 12.4951 9.0488 12.5942 9.15918 12.667L17.9248 19.0436C18.0624 19.1451 18.2288 19.1998 18.3998 19.1998C18.612 19.1998 18.8155 19.1155 18.9655 18.9655C19.1155 18.8155 19.1998 18.612 19.1998 18.3998C19.1998 18.3988 19.1998 18.3977 19.1998 18.3967V11.9998V5.60293C19.1998 5.60189 19.1998 5.60085 19.1998 5.5998C19.1998 5.38763 19.1155 5.18415 18.9655 5.03412C18.8155 4.88409 18.612 4.7998 18.3998 4.7998Z" fill="#EAEAE4"/>
</svg>
