<svg width="50" height="50" viewBox="0 0 50 50" fill="none" xmlns="http://www.w3.org/2000/svg">
<path d="M24.9999 4.16667C22.2372 4.16667 19.5877 5.26414 17.6342 7.21764C15.6807 9.17115 14.5833 11.8207 14.5833 14.5833C14.5833 17.346 15.6807 19.9955 17.6342 21.949C19.5877 23.9025 22.2372 25 24.9999 25C27.7626 25 30.4121 23.9025 32.3656 21.949C34.3191 19.9955 35.4166 17.346 35.4166 14.5833C35.4166 11.8207 34.3191 9.17115 32.3656 7.21764C30.4121 5.26414 27.7626 4.16667 24.9999 4.16667ZM37.5218 29.1667H12.478C10.1926 29.1667 8.33325 31.026 8.33325 33.3115V34.8958C8.33325 38.3458 10.2968 41.3292 13.8614 43.2948C16.827 44.9323 20.7832 45.8333 24.9999 45.8333C33.027 45.8333 41.6666 42.4104 41.6666 34.8958V33.3115C41.6666 31.026 39.8072 29.1667 37.5218 29.1667Z" fill="#2F8C2D"/>
</svg>
