<svg width="64" height="64" viewBox="0 0 64 64" fill="none" xmlns="http://www.w3.org/2000/svg">
<path d="M10.3333 7C9.62609 7 8.94781 7.28095 8.44772 7.78105C7.94762 8.28115 7.66667 8.95942 7.66667 9.66667C7.66667 10.3739 7.94762 11.0522 8.44772 11.5523C8.94781 12.0524 9.62609 12.3333 10.3333 12.3333C10.6989 12.3332 11.0606 12.2578 11.3958 12.112C11.5549 12.1923 11.7239 12.2509 11.8984 12.2865L42.1094 19H9.66667C7.11339 19 5 21.1134 5 23.6667V51.6667C5 54.2199 7.11339 56.3333 9.66667 56.3333H53.6667C56.2199 56.3333 58.3333 54.2199 58.3333 51.6667V30.6615C58.3686 30.4468 58.3686 30.2277 58.3333 30.013V23.6667C58.3333 21.1134 56.2199 19 53.6667 19H50.2188C50.3131 18.7332 50.3497 18.4494 50.3263 18.1673C50.3028 17.8853 50.2198 17.6114 50.0827 17.3638C49.9457 17.1163 49.7576 16.9006 49.531 16.731C49.3044 16.5614 49.0444 16.4419 48.7682 16.3802L12.7682 8.38021C12.7311 8.3722 12.6938 8.36526 12.6562 8.35938C12.4244 7.94715 12.0871 7.60401 11.6789 7.36513C11.2707 7.12625 10.8063 7.00024 10.3333 7ZM9.66667 23H15.6667V28.3333H9V23.6667C9 23.2733 9.27327 23 9.66667 23ZM19.6667 23H53.6667C54.0601 23 54.3333 23.2733 54.3333 23.6667V28.3333H19.6667V23ZM9 32.3333H17.3385C17.5532 32.3686 17.7723 32.3686 17.987 32.3333H54.3333V51.6667C54.3333 52.0601 54.0601 52.3333 53.6667 52.3333H9.66667C9.27327 52.3333 9 52.0601 9 51.6667V32.3333ZM44.3333 35C42.0556 35 40.094 35.9262 38.8385 37.3385C37.5831 38.7509 37 40.5556 37 42.3333C37 44.1111 37.5831 45.9158 38.8385 47.3281C40.094 48.7405 42.0556 49.6667 44.3333 49.6667C46.6111 49.6667 48.5727 48.7405 49.8281 47.3281C51.0836 45.9158 51.6667 44.1111 51.6667 42.3333C51.6667 40.5556 51.0836 38.7509 49.8281 37.3385C48.5727 35.9262 46.6111 35 44.3333 35ZM23 36.3333C22.4696 36.3333 21.9609 36.544 21.5858 36.9191C21.2107 37.2942 21 37.8029 21 38.3333C21 38.8638 21.2107 39.3725 21.5858 39.7475C21.9609 40.1226 22.4696 40.3333 23 40.3333C23.5304 40.3333 24.0391 40.1226 24.4142 39.7475C24.7893 39.3725 25 38.8638 25 38.3333C25 37.8029 24.7893 37.2942 24.4142 36.9191C24.0391 36.544 23.5304 36.3333 23 36.3333ZM44.3333 39C45.6111 39 46.3162 39.4072 46.8385 39.9948C47.3609 40.5824 47.6667 41.4444 47.6667 42.3333C47.6667 43.2222 47.3609 44.0842 46.8385 44.6719C46.3162 45.2595 45.6111 45.6667 44.3333 45.6667C43.0556 45.6667 42.3505 45.2595 41.8281 44.6719C41.3058 44.0842 41 43.2222 41 42.3333C41 41.4444 41.3058 40.5824 41.8281 39.9948C42.3505 39.4072 43.0556 39 44.3333 39ZM16.3333 40.3333C15.8029 40.3333 15.2942 40.544 14.9191 40.9191C14.544 41.2942 14.3333 41.8029 14.3333 42.3333C14.3333 42.8638 14.544 43.3725 14.9191 43.7476C15.2942 44.1226 15.8029 44.3333 16.3333 44.3333C16.8638 44.3333 17.3725 44.1226 17.7475 43.7476C18.1226 43.3725 18.3333 42.8638 18.3333 42.3333C18.3333 41.8029 18.1226 41.2942 17.7475 40.9191C17.3725 40.544 16.8638 40.3333 16.3333 40.3333ZM29.6667 40.3333C29.1362 40.3333 28.6275 40.544 28.2525 40.9191C27.8774 41.2942 27.6667 41.8029 27.6667 42.3333C27.6667 42.8638 27.8774 43.3725 28.2525 43.7476C28.6275 44.1226 29.1362 44.3333 29.6667 44.3333C30.1971 44.3333 30.7058 44.1226 31.0809 43.7476C31.456 43.3725 31.6667 42.8638 31.6667 42.3333C31.6667 41.8029 31.456 41.2942 31.0809 40.9191C30.7058 40.544 30.1971 40.3333 29.6667 40.3333ZM23 44.3333C22.4696 44.3333 21.9609 44.544 21.5858 44.9191C21.2107 45.2942 21 45.8029 21 46.3333C21 46.8638 21.2107 47.3725 21.5858 47.7476C21.9609 48.1226 22.4696 48.3333 23 48.3333C23.5304 48.3333 24.0391 48.1226 24.4142 47.7476C24.7893 47.3725 25 46.8638 25 46.3333C25 45.8029 24.7893 45.2942 24.4142 44.9191C24.0391 44.544 23.5304 44.3333 23 44.3333Z" fill="#58217A"/>
</svg>
