<svg width="54" height="50" viewBox="0 0 54 50" fill="none" xmlns="http://www.w3.org/2000/svg">
<path d="M5.33333 0C4.62609 0 3.94781 0.280951 3.44772 0.781048C2.94762 1.28115 2.66667 1.95942 2.66667 2.66667C2.66667 3.37391 2.94762 4.05219 3.44772 4.55228C3.94781 5.05238 4.62609 5.33333 5.33333 5.33333C5.69893 5.33316 6.06059 5.25782 6.39583 5.11198C6.55485 5.19226 6.72388 5.25094 6.89844 5.28646L37.1094 12H4.66667C2.11339 12 0 14.1134 0 16.6667V44.6667C0 47.2199 2.11339 49.3333 4.66667 49.3333H48.6667C51.2199 49.3333 53.3333 47.2199 53.3333 44.6667V23.6615C53.3686 23.4468 53.3686 23.2277 53.3333 23.013V16.6667C53.3333 14.1134 51.2199 12 48.6667 12H45.2188C45.3131 11.7332 45.3497 11.4494 45.3263 11.1673C45.3028 10.8853 45.2198 10.6114 45.0827 10.3638C44.9457 10.1163 44.7576 9.90055 44.531 9.731C44.3044 9.56144 44.0444 9.44188 43.7682 9.38021L7.76823 1.38021C7.73111 1.3722 7.69377 1.36526 7.65625 1.35938C7.42439 0.947151 7.08707 0.604007 6.67887 0.365129C6.27067 0.126252 5.80629 0.000235037 5.33333 0ZM4.66667 16H10.6667V21.3333H4V16.6667C4 16.2733 4.27327 16 4.66667 16ZM14.6667 16H48.6667C49.0601 16 49.3333 16.2733 49.3333 16.6667V21.3333H14.6667V16ZM4 25.3333H12.3385C12.5532 25.3686 12.7723 25.3686 12.987 25.3333H49.3333V44.6667C49.3333 45.0601 49.0601 45.3333 48.6667 45.3333H4.66667C4.27327 45.3333 4 45.0601 4 44.6667V25.3333ZM39.3333 28C37.0556 28 35.094 28.9262 33.8385 30.3385C32.5831 31.7509 32 33.5556 32 35.3333C32 37.1111 32.5831 38.9158 33.8385 40.3281C35.094 41.7405 37.0556 42.6667 39.3333 42.6667C41.6111 42.6667 43.5727 41.7405 44.8281 40.3281C46.0836 38.9158 46.6667 37.1111 46.6667 35.3333C46.6667 33.5556 46.0836 31.7509 44.8281 30.3385C43.5727 28.9262 41.6111 28 39.3333 28ZM18 29.3333C17.4696 29.3333 16.9609 29.544 16.5858 29.9191C16.2107 30.2942 16 30.8029 16 31.3333C16 31.8638 16.2107 32.3725 16.5858 32.7475C16.9609 33.1226 17.4696 33.3333 18 33.3333C18.5304 33.3333 19.0391 33.1226 19.4142 32.7475C19.7893 32.3725 20 31.8638 20 31.3333C20 30.8029 19.7893 30.2942 19.4142 29.9191C19.0391 29.544 18.5304 29.3333 18 29.3333ZM39.3333 32C40.6111 32 41.3162 32.4072 41.8385 32.9948C42.3609 33.5824 42.6667 34.4444 42.6667 35.3333C42.6667 36.2222 42.3609 37.0842 41.8385 37.6719C41.3162 38.2595 40.6111 38.6667 39.3333 38.6667C38.0556 38.6667 37.3505 38.2595 36.8281 37.6719C36.3058 37.0842 36 36.2222 36 35.3333C36 34.4444 36.3058 33.5824 36.8281 32.9948C37.3505 32.4072 38.0556 32 39.3333 32ZM11.3333 33.3333C10.8029 33.3333 10.2942 33.544 9.91912 33.9191C9.54405 34.2942 9.33333 34.8029 9.33333 35.3333C9.33333 35.8638 9.54405 36.3725 9.91912 36.7476C10.2942 37.1226 10.8029 37.3333 11.3333 37.3333C11.8638 37.3333 12.3725 37.1226 12.7475 36.7476C13.1226 36.3725 13.3333 35.8638 13.3333 35.3333C13.3333 34.8029 13.1226 34.2942 12.7475 33.9191C12.3725 33.544 11.8638 33.3333 11.3333 33.3333ZM24.6667 33.3333C24.1362 33.3333 23.6275 33.544 23.2525 33.9191C22.8774 34.2942 22.6667 34.8029 22.6667 35.3333C22.6667 35.8638 22.8774 36.3725 23.2525 36.7476C23.6275 37.1226 24.1362 37.3333 24.6667 37.3333C25.1971 37.3333 25.7058 37.1226 26.0809 36.7476C26.456 36.3725 26.6667 35.8638 26.6667 35.3333C26.6667 34.8029 26.456 34.2942 26.0809 33.9191C25.7058 33.544 25.1971 33.3333 24.6667 33.3333ZM18 37.3333C17.4696 37.3333 16.9609 37.544 16.5858 37.9191C16.2107 38.2942 16 38.8029 16 39.3333C16 39.8638 16.2107 40.3725 16.5858 40.7476C16.9609 41.1226 17.4696 41.3333 18 41.3333C18.5304 41.3333 19.0391 41.1226 19.4142 40.7476C19.7893 40.3725 20 39.8638 20 39.3333C20 38.8029 19.7893 38.2942 19.4142 37.9191C19.0391 37.544 18.5304 37.3333 18 37.3333Z" fill="#58217A"/>
</svg>
