<svg width="16" height="16" viewBox="0 0 16 16" fill="none" xmlns="http://www.w3.org/2000/svg">
<path fill-rule="evenodd" clip-rule="evenodd" d="M6.50977 12.0098C3.47217 12.0098 1.00977 9.54736 1.00977 6.50977C1.00977 3.47217 3.47217 1.00977 6.50977 1.00977C9.54736 1.00977 12.0098 3.47217 12.0098 6.50977C12.0098 7.80469 11.5623 8.99561 10.8134 9.93506C10.8448 9.95166 10.8752 9.97119 10.9042 9.99316C10.9269 10.0103 10.9486 10.0293 10.9694 10.0503L14.7877 13.8687C15.0416 14.1226 15.0416 14.5342 14.7877 14.7881C14.5339 15.0415 14.1223 15.0415 13.8685 14.7881L10.0502 10.9697C10.0029 10.9224 9.96436 10.8696 9.93469 10.8135C8.995 11.5625 7.80469 12.0098 6.50977 12.0098ZM11.0098 6.50977C11.0098 8.99512 8.995 11.0098 6.50977 11.0098C4.02454 11.0098 2.00977 8.99512 2.00977 6.50977C2.00977 4.02441 4.02454 2.00977 6.50977 2.00977C8.995 2.00977 11.0098 4.02441 11.0098 6.50977Z" fill="#BFBFB6"/>
</svg>
