<svg width="28" height="28" viewBox="0 0 28 28" fill="none" xmlns="http://www.w3.org/2000/svg">
<g opacity="0.9">
<path d="M14 2.33331C13.0802 2.33331 12.1932 2.44965 11.3465 2.64663C11.17 2.68784 11.0106 2.78287 10.8904 2.9186C10.7702 3.05432 10.6951 3.22403 10.6755 3.40428L10.4898 5.09731C10.429 5.65211 10.1086 6.14298 9.62502 6.42234C9.14246 6.70115 8.55672 6.73204 8.04592 6.50779H8.04478L6.48961 5.82306C6.32373 5.75006 6.13928 5.73037 5.96172 5.76669C5.78417 5.80302 5.62228 5.89358 5.4984 6.02586C4.28944 7.31474 3.36159 8.87543 2.83466 10.6173C2.78217 10.7907 2.78478 10.9761 2.84212 11.1479C2.89947 11.3197 3.00872 11.4695 3.15481 11.5766L4.53453 12.5884C4.98507 12.9196 5.25002 13.4416 5.25002 14C5.25002 14.5586 4.98508 15.0811 4.53453 15.4116L3.15481 16.4222C3.00872 16.5293 2.89947 16.6791 2.84212 16.8509C2.78478 17.0227 2.78217 17.2081 2.83466 17.3815C3.36153 19.1232 4.28865 20.685 5.4984 21.9741C5.62241 22.1062 5.78437 22.1965 5.96191 22.2327C6.13946 22.2688 6.32384 22.2489 6.48961 22.1758L8.04478 21.491C8.55583 21.2663 9.14212 21.2986 9.62502 21.5776C10.1086 21.857 10.429 22.3479 10.4898 22.9027L10.6755 24.5957C10.6952 24.7756 10.7702 24.9449 10.8902 25.0804C11.0102 25.2159 11.1692 25.3108 11.3454 25.3522C12.1925 25.5499 13.0802 25.6666 14 25.6666C14.9199 25.6666 15.8068 25.5503 16.6535 25.3533C16.8301 25.3121 16.9895 25.2171 17.1097 25.0814C17.2299 24.9456 17.305 24.7759 17.3246 24.5957L17.5103 22.9027C17.571 22.3479 17.8915 21.857 18.375 21.5776C18.8576 21.2988 19.4433 21.2668 19.9541 21.491L21.5104 22.1758C21.6762 22.2489 21.8606 22.2688 22.0381 22.2327C22.2157 22.1965 22.3776 22.1062 22.5017 21.9741C23.7106 20.6852 24.6385 19.1234 25.1654 17.3815C25.2179 17.2081 25.2153 17.0227 25.1579 16.8509C25.1006 16.6791 24.9913 16.5293 24.8452 16.4222L23.4655 15.4116C23.015 15.0811 22.75 14.5586 22.75 14C22.75 13.4413 23.015 12.9189 23.4655 12.5884L24.8452 11.5778C24.9913 11.4707 25.1006 11.3209 25.1579 11.1491C25.2153 10.9772 25.2179 10.7918 25.1654 10.6185C24.6385 8.87657 23.7106 7.31474 22.5017 6.02586C22.3776 5.89377 22.2157 5.80343 22.0381 5.76731C21.8606 5.73118 21.6762 5.75106 21.5104 5.8242L19.9541 6.50893C19.4433 6.73317 18.8576 6.70115 18.375 6.42234C17.8915 6.14298 17.571 5.65211 17.5103 5.09731L17.3246 3.40428C17.3048 3.22439 17.2298 3.05504 17.1098 2.91955C16.9899 2.78407 16.8308 2.68912 16.6546 2.64777C15.8076 2.45007 14.9199 2.33331 14 2.33331ZM14 4.08331C14.5684 4.08331 15.1141 4.18533 15.6612 4.28156L15.7705 5.28758C15.8918 6.39528 16.5357 7.38051 17.5 7.93764C18.465 8.49514 19.6397 8.55924 20.6594 8.11082L21.5845 7.70408C22.2949 8.55713 22.8573 9.52067 23.2502 10.5763L22.4299 11.1779C21.5318 11.8367 21 12.8856 21 14C21 15.1143 21.5318 16.1633 22.4299 16.8221L23.2502 17.4236C22.8573 18.4793 22.2949 19.4428 21.5845 20.2959L20.6594 19.8891C19.6397 19.4407 18.465 19.5048 17.5 20.0623C16.5357 20.6195 15.8918 21.6047 15.7705 22.7124L15.6612 23.7184C15.1142 23.8144 14.5681 23.9166 14 23.9166C13.4317 23.9166 12.8859 23.8146 12.3389 23.7184L12.2295 22.7124C12.1083 21.6047 11.4643 20.6195 10.5 20.0623C9.53509 19.5048 8.3603 19.4407 7.34068 19.8891L6.41555 20.2959C5.70501 19.443 5.14266 18.4794 4.74986 17.4236L5.57017 16.8221C6.46829 16.1633 7.00002 15.1143 7.00002 14C7.00002 12.8856 6.46786 11.836 5.57017 11.1767L4.74986 10.5752C5.14289 9.51912 5.70587 8.55622 6.41669 7.70294L7.34068 8.10968C8.3603 8.5581 9.53509 8.49514 10.5 7.93764C11.4643 7.38051 12.1083 6.39528 12.2295 5.28758L12.3389 4.28156C12.8859 4.18559 13.432 4.08331 14 4.08331ZM14 9.33331C11.4331 9.33331 9.33336 11.433 9.33336 14C9.33336 16.5669 11.4331 18.6666 14 18.6666C16.567 18.6666 18.6667 16.5669 18.6667 14C18.6667 11.433 16.567 9.33331 14 9.33331ZM14 11.0833C15.6212 11.0833 16.9167 12.3788 16.9167 14C16.9167 15.6212 15.6212 16.9166 14 16.9166C12.3788 16.9166 11.0834 15.6212 11.0834 14C11.0834 12.3788 12.3788 11.0833 14 11.0833Z" fill="white"/>
</g>
</svg>
