<svg width="28" height="28" viewBox="0 0 28 28" fill="none" xmlns="http://www.w3.org/2000/svg">
<g opacity="0.9">
<path d="M6.53343 5.59998C6.2859 5.59998 6.0485 5.69831 5.87347 5.87334C5.69843 6.04838 5.6001 6.28577 5.6001 6.53331C5.6001 6.53452 5.6001 6.53574 5.6001 6.53695V14V21.463C5.6001 21.4642 5.6001 21.4654 5.6001 21.4666C5.6001 21.7142 5.69843 21.9516 5.87347 22.1266C6.0485 22.3016 6.2859 22.4 6.53343 22.4C6.73226 22.3996 6.92578 22.3357 7.08578 22.2177H7.0876C7.09622 22.2111 7.10473 22.2045 7.11312 22.1976L17.305 14.7857C17.4365 14.7011 17.5447 14.5848 17.6195 14.4475C17.6944 14.3102 17.7336 14.1563 17.7334 14C17.7333 13.8468 17.6955 13.696 17.6234 13.5609C17.5512 13.4258 17.4469 13.3105 17.3196 13.2252L7.0876 5.78227C6.9271 5.66385 6.73289 5.59997 6.53343 5.59998ZM21.0001 5.59998C20.2273 5.59998 19.6001 6.22718 19.6001 6.99998V21C19.6001 21.7728 20.2273 22.4 21.0001 22.4C21.7729 22.4 22.4001 21.7728 22.4001 21V6.99998C22.4001 6.22718 21.7729 5.59998 21.0001 5.59998Z" fill="white"/>
</g>
</svg>
