<svg width="28" height="28" viewBox="0 0 28 28" fill="none" xmlns="http://www.w3.org/2000/svg">
<g opacity="0.9">
<path d="M7.0001 5.59998C6.2273 5.59998 5.6001 6.22718 5.6001 6.99998V21C5.6001 21.7728 6.2273 22.4 7.0001 22.4C7.7729 22.4 8.4001 21.7728 8.4001 21V6.99998C8.4001 6.22718 7.7729 5.59998 7.0001 5.59998ZM21.4668 5.59998C21.2673 5.59997 21.0731 5.66385 20.9126 5.78227C20.904 5.7888 20.8955 5.79549 20.8871 5.80232L10.697 13.2125C10.6964 13.2131 10.6958 13.2137 10.6951 13.2143L10.6806 13.2252C10.5533 13.3105 10.449 13.4258 10.3768 13.5609C10.3047 13.696 10.2669 13.8468 10.2668 14C10.2669 14.1543 10.3052 14.3061 10.3784 14.442C10.4516 14.5778 10.5573 14.6934 10.686 14.7784L20.9126 22.2177C21.0731 22.3361 21.2673 22.4 21.4668 22.4C21.7143 22.4 21.9517 22.3016 22.1267 22.1266C22.3018 21.9516 22.4001 21.7142 22.4001 21.4666C22.4001 21.4654 22.4001 21.4642 22.4001 21.463V14V6.53695C22.4001 6.53574 22.4001 6.53452 22.4001 6.53331C22.4001 6.28577 22.3018 6.04838 22.1267 5.87334C21.9517 5.69831 21.7143 5.59998 21.4668 5.59998Z" fill="white"/>
</g>
</svg>
