<svg width="24" height="24" viewBox="0 0 24 24" fill="none" xmlns="http://www.w3.org/2000/svg">
<path d="M8.73822 2.98935C8.53948 2.99245 8.3501 3.07432 8.21167 3.21696C8.07324 3.35959 7.99709 3.55135 7.99994 3.75009V6.75009C7.99994 7.4492 7.44905 8.00009 6.74994 8.00009H3.74994C3.65056 7.99869 3.55188 8.01705 3.45966 8.05411C3.36743 8.09117 3.28349 8.14619 3.21271 8.21597C3.14194 8.28575 3.08573 8.36891 3.04737 8.4606C3.00901 8.55229 2.98926 8.6507 2.98926 8.75009C2.98926 8.84948 3.00901 8.94789 3.04737 9.03958C3.08573 9.13127 3.14194 9.21443 3.21271 9.28421C3.28349 9.35399 3.36743 9.40901 3.45966 9.44607C3.55188 9.48313 3.65056 9.5015 3.74994 9.50009H6.74994C8.25983 9.50009 9.49994 8.25998 9.49994 6.75009V3.75009C9.50138 3.64971 9.48265 3.55006 9.44487 3.45705C9.40709 3.36403 9.35102 3.27955 9.27999 3.20861C9.20895 3.13767 9.1244 3.0817 9.03134 3.04404C8.93828 3.00638 8.8386 2.98778 8.73822 2.98935ZM15.2382 2.98935C15.0395 2.99245 14.8501 3.07432 14.7117 3.21696C14.5732 3.35959 14.4971 3.55135 14.4999 3.75009V6.75009C14.4999 8.25998 15.7401 9.50009 17.2499 9.50009H20.2499C20.3493 9.5015 20.448 9.48313 20.5402 9.44607C20.6325 9.40901 20.7164 9.35399 20.7872 9.28421C20.8579 9.21443 20.9141 9.13127 20.9525 9.03958C20.9909 8.94789 21.0106 8.84948 21.0106 8.75009C21.0106 8.6507 20.9909 8.55229 20.9525 8.4606C20.9141 8.36891 20.8579 8.28575 20.7872 8.21597C20.7164 8.14619 20.6325 8.09117 20.5402 8.05411C20.448 8.01705 20.3493 7.99869 20.2499 8.00009H17.2499C16.5508 8.00009 15.9999 7.4492 15.9999 6.75009V3.75009C16.0014 3.64971 15.9827 3.55006 15.9449 3.45705C15.9071 3.36403 15.851 3.27955 15.78 3.20861C15.709 3.13767 15.6244 3.0817 15.5313 3.04404C15.4383 3.00638 15.3386 2.98778 15.2382 2.98935ZM3.74994 14.5001C3.65056 14.4987 3.55188 14.517 3.45966 14.5541C3.36743 14.5912 3.28349 14.6462 3.21271 14.716C3.14194 14.7858 3.08573 14.8689 3.04737 14.9606C3.00901 15.0523 2.98926 15.1507 2.98926 15.2501C2.98926 15.3495 3.00901 15.4479 3.04737 15.5396C3.08573 15.6313 3.14194 15.7144 3.21271 15.7842C3.28349 15.854 3.36743 15.909 3.45966 15.9461C3.55188 15.9831 3.65056 16.0015 3.74994 16.0001H6.74994C7.44905 16.0001 7.99994 16.551 7.99994 17.2501V20.2501C7.99854 20.3495 8.0169 20.4481 8.05396 20.5404C8.09102 20.6326 8.14604 20.7165 8.21582 20.7873C8.2856 20.8581 8.36876 20.9143 8.46045 20.9527C8.55214 20.991 8.65055 21.0108 8.74994 21.0108C8.84933 21.0108 8.94774 20.991 9.03943 20.9527C9.13112 20.9143 9.21428 20.8581 9.28406 20.7873C9.35384 20.7165 9.40886 20.6326 9.44592 20.5404C9.48299 20.4481 9.50135 20.3495 9.49994 20.2501V17.2501C9.49994 15.7402 8.25983 14.5001 6.74994 14.5001H3.74994ZM17.2499 14.5001C15.7401 14.5001 14.4999 15.7402 14.4999 17.2501V20.2501C14.4985 20.3495 14.5169 20.4481 14.554 20.5404C14.591 20.6326 14.646 20.7165 14.7158 20.7873C14.7856 20.8581 14.8688 20.9143 14.9605 20.9527C15.0521 20.991 15.1505 21.0108 15.2499 21.0108C15.3493 21.0108 15.4477 20.991 15.5394 20.9527C15.6311 20.9143 15.7143 20.8581 15.7841 20.7873C15.8538 20.7165 15.9089 20.6326 15.9459 20.5404C15.983 20.4481 16.0013 20.3495 15.9999 20.2501V17.2501C15.9999 16.551 16.5508 16.0001 17.2499 16.0001H20.2499C20.3493 16.0015 20.448 15.9831 20.5402 15.9461C20.6325 15.909 20.7164 15.854 20.7872 15.7842C20.8579 15.7144 20.9141 15.6313 20.9525 15.5396C20.9909 15.4479 21.0106 15.3495 21.0106 15.2501C21.0106 15.1507 20.9909 15.0523 20.9525 14.9606C20.9141 14.8689 20.8579 14.7858 20.7872 14.716C20.7164 14.6462 20.6325 14.5912 20.5402 14.5541C20.448 14.517 20.3493 14.4987 20.2499 14.5001H17.2499Z" fill="#EAEAE4"/>
</svg>
