<svg width="51" height="53" viewBox="0 0 51 53" fill="none" xmlns="http://www.w3.org/2000/svg">
<path d="M37.9844 0.000406037C37.5333 0.00875827 37.0983 0.169363 36.75 0.456135L24.7109 10.0889L16.6354 3.16707C16.4365 2.99313 16.205 2.86035 15.9544 2.77638C15.7039 2.69242 15.4391 2.65894 15.1755 2.67788C14.912 2.69682 14.6547 2.76781 14.4187 2.88674C14.1827 3.00568 13.9727 3.17019 13.8006 3.37079C13.6286 3.57139 13.498 3.8041 13.4164 4.05546C13.3348 4.30682 13.3039 4.57185 13.3253 4.83525C13.3468 5.09865 13.4202 5.35518 13.5414 5.59004C13.6625 5.82489 13.829 6.0334 14.0312 6.20353L19.2604 10.6853H8.66667C3.90408 10.6853 0 14.5894 0 19.352V43.352C0 48.1146 3.90408 52.0186 8.66667 52.0186H42C46.7626 52.0186 50.6667 48.1146 50.6667 43.352V19.352C50.6667 14.5894 46.7626 10.6853 42 10.6853H30.3698L39.25 3.58114C39.5824 3.32351 39.8251 2.96767 39.9437 2.5642C40.0623 2.16072 40.0507 1.73013 39.9105 1.33363C39.7704 0.937131 39.5088 0.594888 39.163 0.355545C38.8173 0.116201 38.4048 -0.00806509 37.9844 0.000406037ZM8.66667 14.6853H24.6484H42C44.6001 14.6853 46.6667 16.7519 46.6667 19.352V43.352C46.6667 45.9521 44.6001 48.0186 42 48.0186H8.66667C6.06658 48.0186 4 45.9521 4 43.352V19.352C4 16.7519 6.06658 14.6853 8.66667 14.6853ZM40.6667 24.0186C40.1362 24.0186 39.6275 24.2294 39.2524 24.6044C38.8774 24.9795 38.6667 25.4882 38.6667 26.0186C38.6667 26.5491 38.8774 27.0578 39.2524 27.4328C39.6275 27.8079 40.1362 28.0186 40.6667 28.0186C41.1971 28.0186 41.7058 27.8079 42.0809 27.4328C42.456 27.0578 42.6667 26.5491 42.6667 26.0186C42.6667 25.4882 42.456 24.9795 42.0809 24.6044C41.7058 24.2294 41.1971 24.0186 40.6667 24.0186ZM40.6667 33.352C40.1362 33.352 39.6275 33.5627 39.2524 33.9378C38.8774 34.3128 38.6667 34.8215 38.6667 35.352C38.6667 35.8824 38.8774 36.3911 39.2524 36.7662C39.6275 37.1413 40.1362 37.352 40.6667 37.352C41.1971 37.352 41.7058 37.1413 42.0809 36.7662C42.456 36.3911 42.6667 35.8824 42.6667 35.352C42.6667 34.8215 42.456 34.3128 42.0809 33.9378C41.7058 33.5627 41.1971 33.352 40.6667 33.352Z" fill="#58217A"/>
</svg>
