<svg width="64" height="64" viewBox="0 0 64 64" fill="none" xmlns="http://www.w3.org/2000/svg">
<path d="M44.9844 6.00041C44.5333 6.00876 44.0983 6.16936 43.75 6.45614L31.7109 16.0889L23.6354 9.16707C23.4365 8.99313 23.205 8.86035 22.9544 8.77638C22.7039 8.69242 22.4391 8.65894 22.1755 8.67788C21.912 8.69682 21.6547 8.76781 21.4187 8.88674C21.1827 9.00568 20.9727 9.17019 20.8006 9.37079C20.6286 9.57139 20.498 9.8041 20.4164 10.0555C20.3348 10.3068 20.3039 10.5719 20.3253 10.8352C20.3468 11.0986 20.4202 11.3552 20.5414 11.59C20.6625 11.8249 20.829 12.0334 21.0312 12.2035L26.2604 16.6853H15.6667C10.9041 16.6853 7 20.5894 7 25.352V49.352C7 54.1146 10.9041 58.0186 15.6667 58.0186H49C53.7626 58.0186 57.6667 54.1146 57.6667 49.352V25.352C57.6667 20.5894 53.7626 16.6853 49 16.6853H37.3698L46.25 9.58114C46.5824 9.32351 46.8251 8.96767 46.9437 8.5642C47.0623 8.16072 47.0507 7.73013 46.9105 7.33363C46.7704 6.93713 46.5088 6.59489 46.163 6.35554C45.8173 6.1162 45.4048 5.99193 44.9844 6.00041ZM15.6667 20.6853H31.6484H49C51.6001 20.6853 53.6667 22.7519 53.6667 25.352V49.352C53.6667 51.9521 51.6001 54.0186 49 54.0186H15.6667C13.0666 54.0186 11 51.9521 11 49.352V25.352C11 22.7519 13.0666 20.6853 15.6667 20.6853ZM47.6667 30.0186C47.1362 30.0186 46.6275 30.2294 46.2524 30.6044C45.8774 30.9795 45.6667 31.4882 45.6667 32.0186C45.6667 32.5491 45.8774 33.0578 46.2524 33.4328C46.6275 33.8079 47.1362 34.0186 47.6667 34.0186C48.1971 34.0186 48.7058 33.8079 49.0809 33.4328C49.456 33.0578 49.6667 32.5491 49.6667 32.0186C49.6667 31.4882 49.456 30.9795 49.0809 30.6044C48.7058 30.2294 48.1971 30.0186 47.6667 30.0186ZM47.6667 39.352C47.1362 39.352 46.6275 39.5627 46.2524 39.9378C45.8774 40.3128 45.6667 40.8215 45.6667 41.352C45.6667 41.8824 45.8774 42.3911 46.2524 42.7662C46.6275 43.1413 47.1362 43.352 47.6667 43.352C48.1971 43.352 48.7058 43.1413 49.0809 42.7662C49.456 42.3911 49.6667 41.8824 49.6667 41.352C49.6667 40.8215 49.456 40.3128 49.0809 39.9378C48.7058 39.5627 48.1971 39.352 47.6667 39.352Z" fill="#58217A"/>
</svg>
