<svg width="28" height="28" viewBox="0 0 28 28" fill="none" xmlns="http://www.w3.org/2000/svg">
<path d="M14 2C12.5082 2 11.0774 2.63214 10.0225 3.75736C8.96763 4.88258 8.375 6.4087 8.375 8C8.375 9.5913 8.96763 11.1174 10.0225 12.2426C11.0774 13.3679 12.5082 14 14 14C15.4918 14 16.9226 13.3679 17.9775 12.2426C19.0324 11.1174 19.625 9.5913 19.625 8C19.625 6.4087 19.0324 4.88258 17.9775 3.75736C16.9226 2.63214 15.4918 2 14 2ZM20.7618 16.4H7.23819C6.00406 16.4 5 17.471 5 18.7874V19.7C5 21.6872 6.06031 23.4056 7.98519 24.5378C9.58663 25.481 11.723 26 14 26C18.3346 26 23 24.0284 23 19.7V18.7874C23 17.471 21.9959 16.4 20.7618 16.4Z" fill="#7F58EC"/>
</svg>
