<svg width="28" height="28" viewBox="0 0 28 28" fill="none" xmlns="http://www.w3.org/2000/svg">
<path d="M13.9995 2C10.903 2 8.37479 4.69695 8.37479 8C8.37479 11.303 10.903 14 13.9995 14C17.0959 14 19.6241 11.303 19.6241 8C19.6241 4.69695 17.0959 2 13.9995 2ZM13.9995 3.8C16.1839 3.8 17.9367 5.66974 17.9367 8C17.9367 10.3303 16.1839 12.2 13.9995 12.2C11.815 12.2 10.0622 10.3303 10.0622 8C10.0622 5.66974 11.815 3.8 13.9995 3.8ZM7.23778 16.4C6.01171 16.4 5 17.4792 5 18.7871V19.7C5 21.8625 6.28201 23.5353 7.9848 24.5375C9.68759 25.5397 11.8441 26 13.9995 26C16.1548 26 18.3113 25.5397 20.0141 24.5375C21.466 23.683 22.5587 22.3176 22.8649 20.6H23V18.7871C23 17.4792 21.9872 16.4 20.7611 16.4H7.23778ZM7.23778 18.2H20.7611C21.0751 18.2 21.3126 18.4522 21.3126 18.7871V18.8H21.3115V19.7C21.3115 21.1375 20.5546 22.1647 19.199 22.9625C17.8433 23.7603 15.922 24.2 13.9995 24.2C12.0769 24.2 10.1556 23.7603 8.79994 22.9625C7.44432 22.1647 6.6874 21.1375 6.6874 19.7V18.7871C6.6874 18.4522 6.92382 18.2 7.23778 18.2Z" fill="white"/>
</svg>
